<?xml version="1.0" encoding="UTF-8"?>
<!DOCTYPE svg PUBLIC "-//W3C//DTD SVG 1.1//EN" "http://www.w3.org/Graphics/SVG/1.1/DTD/svg11.dtd">
<svg xmlns="http://www.w3.org/2000/svg" version="1.1" width="200px" height="283px" style="shape-rendering:geometricPrecision; text-rendering:geometricPrecision; image-rendering:optimizeQuality; fill-rule:evenodd; clip-rule:evenodd" xmlns:xlink="http://www.w3.org/1999/xlink">
<g><path style="opacity:1" fill="#fdfdfd" d="M -0.5,-0.5 C 66.1667,-0.5 132.833,-0.5 199.5,-0.5C 199.5,60.5 199.5,121.5 199.5,182.5C 169.368,152.868 139.368,123.035 109.5,93C 113.356,92.8227 117.023,92.3227 120.5,91.5C 132.47,90.9394 144.136,88.7727 155.5,85C 156.942,84.6232 157.942,83.7899 158.5,82.5C 159.407,80.3432 160.073,78.0098 160.5,75.5C 161.683,70.455 164.35,66.455 168.5,63.5C 169.582,53.0882 172.749,43.4215 178,34.5C 178.495,32.5273 178.662,30.5273 178.5,28.5C 176.328,27.1989 173.995,26.1989 171.5,25.5C 171.5,24.5 171.5,23.5 171.5,22.5C 169.027,22.264 167.36,20.9307 166.5,18.5C 164.167,19.8333 161.833,21.1667 159.5,22.5C 159.417,28.467 157.584,33.8004 154,38.5C 153.329,39.2524 152.496,39.5858 151.5,39.5C 147.893,38.348 144.227,37.348 140.5,36.5C 140.167,36.5 139.833,36.5 139.5,36.5C 136.727,35.3428 133.727,34.6761 130.5,34.5C 129.432,33.5655 128.099,33.2322 126.5,33.5C 122.865,32.8857 119.198,32.5524 115.5,32.5C 113.735,31.5386 111.735,31.2053 109.5,31.5C 109.5,31.1667 109.5,30.8333 109.5,30.5C 109.5,29.1667 109.5,27.8333 109.5,26.5C 109.5,22.8333 109.5,19.1667 109.5,15.5C 109.5,15.1667 109.5,14.8333 109.5,14.5C 110.71,14.0679 111.71,13.4013 112.5,12.5C 112.5,10.5 112.5,8.5 112.5,6.5C 111.167,6.5 109.833,6.5 108.5,6.5C 108.5,7.5 108.5,8.5 108.5,9.5C 107.5,9.5 106.5,9.5 105.5,9.5C 105.5,8.5 105.5,7.5 105.5,6.5C 104.167,6.5 102.833,6.5 101.5,6.5C 101.5,7.5 101.5,8.5 101.5,9.5C 100.167,9.5 98.8333,9.5 97.5,9.5C 97.5,8.5 97.5,7.5 97.5,6.5C 96.5,6.5 95.5,6.5 94.5,6.5C 93.8485,7.09065 93.1818,7.75731 92.5,8.5C 91.8182,7.75731 91.1515,7.09065 90.5,6.5C 89.5,6.5 88.5,6.5 87.5,6.5C 86.2031,8.69345 86.2031,11.0268 87.5,13.5C 88.1835,13.8627 88.8501,14.1961 89.5,14.5C 89.5,14.8333 89.5,15.1667 89.5,15.5C 89.5,20.8333 89.5,26.1667 89.5,31.5C 85.9581,31.1872 82.6248,31.5206 79.5,32.5C 78.1667,32.5 76.8333,32.5 75.5,32.5C 72.2727,32.6761 69.2727,33.3428 66.5,34.5C 63.8478,34.4095 61.5145,35.0762 59.5,36.5C 57.5853,36.2155 55.9187,36.5489 54.5,37.5C 51.9327,37.7215 49.5994,38.3882 47.5,39.5C 41.6261,35.733 39.6261,30.3997 41.5,23.5C 40.3984,22.8243 39.3984,22.1577 38.5,21.5C 37.2196,20.0687 35.5529,19.4021 33.5,19.5C 31.183,18.4655 30.183,19.4655 30.5,22.5C 29.5,22.5 28.5,22.5 27.5,22.5C 27.5,23.5 27.5,24.5 27.5,25.5C 25.0052,26.1989 22.6719,27.1989 20.5,28.5C 20.2053,30.7354 20.5386,32.7354 21.5,34.5C 22.1667,35.5 22.8333,36.5 23.5,37.5C 24.2638,40.0177 25.2638,42.351 26.5,44.5C 26.5,45.1667 26.5,45.8333 26.5,46.5C 28.6812,51.9254 30.0145,57.5921 30.5,63.5C 33.5224,64.6407 35.5224,66.6407 36.5,69.5C 37.9662,73.7351 39.1329,78.0684 40,82.5C 40.8333,83.3333 41.6667,84.1667 42.5,85C 53.773,89.2343 65.4397,91.401 77.5,91.5C 81.3123,92.3238 85.3123,92.8238 89.5,93C 60,122.5 30.5,152 1,181.5C 0.259877,182.749 0.426544,183.749 1.5,184.5C 33.8333,217.167 66.1667,249.833 98.5,282.5C 65.5,282.5 32.5,282.5 -0.5,282.5C -0.5,188.167 -0.5,93.8333 -0.5,-0.5 Z"/></g>
<g><path style="opacity:1" fill="#dab404" d="M 87.5,6.5 C 88.5,6.5 89.5,6.5 90.5,6.5C 90.5,7.5 90.5,8.5 90.5,9.5C 91.8333,9.5 93.1667,9.5 94.5,9.5C 94.5,8.5 94.5,7.5 94.5,6.5C 95.5,6.5 96.5,6.5 97.5,6.5C 97.5,7.5 97.5,8.5 97.5,9.5C 98.8333,9.5 100.167,9.5 101.5,9.5C 101.5,8.5 101.5,7.5 101.5,6.5C 102.833,6.5 104.167,6.5 105.5,6.5C 105.5,7.5 105.5,8.5 105.5,9.5C 106.5,9.5 107.5,9.5 108.5,9.5C 108.5,8.5 108.5,7.5 108.5,6.5C 109.833,6.5 111.167,6.5 112.5,6.5C 112.5,8.5 112.5,10.5 112.5,12.5C 104.167,12.5 95.8333,12.5 87.5,12.5C 87.5,10.5 87.5,8.5 87.5,6.5 Z"/></g>
<g><path style="opacity:1" fill="#9b9685" d="M 90.5,6.5 C 91.1515,7.09065 91.8182,7.75731 92.5,8.5C 93.1818,7.75731 93.8485,7.09065 94.5,6.5C 94.5,7.5 94.5,8.5 94.5,9.5C 93.1667,9.5 91.8333,9.5 90.5,9.5C 90.5,8.5 90.5,7.5 90.5,6.5 Z"/></g>
<g><path style="opacity:1" fill="#9b8110" d="M 87.5,6.5 C 87.5,8.5 87.5,10.5 87.5,12.5C 95.8333,12.5 104.167,12.5 112.5,12.5C 111.71,13.4013 110.71,14.0679 109.5,14.5C 102.833,13.1667 96.1667,13.1667 89.5,14.5C 88.8501,14.1961 88.1835,13.8627 87.5,13.5C 86.2031,11.0268 86.2031,8.69345 87.5,6.5 Z"/></g>
<g><path style="opacity:1" fill="#e6be03" d="M 109.5,14.5 C 109.5,14.8333 109.5,15.1667 109.5,15.5C 102.833,15.5 96.1667,15.5 89.5,15.5C 89.5,15.1667 89.5,14.8333 89.5,14.5C 96.1667,13.1667 102.833,13.1667 109.5,14.5 Z"/></g>
<g><path style="opacity:1" fill="#7e7141" d="M 33.5,19.5 C 35.5529,19.4021 37.2196,20.0687 38.5,21.5C 36.7951,24.2869 35.6284,23.9535 35,20.5C 33.9125,22.9316 33.4125,22.5983 33.5,19.5 Z"/></g>
<g><path style="opacity:1" fill="#0f0b00" d="M 105.5,25.5 C 105.5,25.8333 105.5,26.1667 105.5,26.5C 105.737,27.791 105.404,28.791 104.5,29.5C 104.167,29.5 103.833,29.5 103.5,29.5C 103.167,29.5 102.833,29.5 102.5,29.5C 102.5,27.5 102.5,25.5 102.5,23.5C 104.332,22.2819 105.332,22.9486 105.5,25.5 Z"/></g>
<g><path style="opacity:1" fill="#e5bd01" d="M 105.5,26.5 C 106.833,26.5 108.167,26.5 109.5,26.5C 109.5,27.8333 109.5,29.1667 109.5,30.5C 107.585,30.7845 105.919,30.4511 104.5,29.5C 105.404,28.791 105.737,27.791 105.5,26.5 Z"/></g>
<g><path style="opacity:1" fill="#d2ad03" d="M 23.5,37.5 C 22.8333,36.5 22.1667,35.5 21.5,34.5C 24.1662,31.0012 27.3329,28.0012 31,25.5C 31.9745,27.8776 32.6411,27.5443 33,24.5C 35.3651,25.2891 37.5318,26.4558 39.5,28C 36.2577,28.2833 35.9244,29.1166 38.5,30.5C 38.1667,30.8333 37.8333,31.1667 37.5,31.5C 35.2143,30.5804 32.8809,30.5804 30.5,31.5C 30.728,29.6453 30.0613,28.8119 28.5,29C 26.8333,30.6667 25.1667,32.3333 23.5,34C 27.2778,35.6399 27.2778,36.8066 23.5,37.5 Z"/></g>
<g><path style="opacity:1" fill="#9d820a" d="M 89.5,15.5 C 96.1667,15.5 102.833,15.5 109.5,15.5C 109.5,19.1667 109.5,22.8333 109.5,26.5C 108.167,26.5 106.833,26.5 105.5,26.5C 105.5,26.1667 105.5,25.8333 105.5,25.5C 107.176,24.8166 107.843,23.4832 107.5,21.5C 105.167,21.5 102.833,21.5 100.5,21.5C 100.343,22.8734 100.51,24.2068 101,25.5C 101.278,24.5842 101.778,23.9175 102.5,23.5C 102.5,25.5 102.5,27.5 102.5,29.5C 101.596,28.791 101.263,27.791 101.5,26.5C 100.167,26.5 98.8333,26.5 97.5,26.5C 97.5,26.1667 97.5,25.8333 97.5,25.5C 99.1765,24.8166 99.8432,23.4832 99.5,21.5C 96.5,21.5 93.5,21.5 90.5,21.5C 90.5,22.8333 90.5,24.1667 90.5,25.5C 92.1993,25.4729 93.5326,24.8062 94.5,23.5C 94.5,25.5 94.5,27.5 94.5,29.5C 93.596,28.791 93.2627,27.791 93.5,26.5C 92.5,26.5 91.5,26.5 90.5,26.5C 90.5,27.8333 90.5,29.1667 90.5,30.5C 92.4147,30.7845 94.0813,30.4511 95.5,29.5C 95.8333,29.5 96.1667,29.5 96.5,29.5C 98.8333,30.8333 101.167,30.8333 103.5,29.5C 103.833,29.5 104.167,29.5 104.5,29.5C 105.919,30.4511 107.585,30.7845 109.5,30.5C 109.5,30.8333 109.5,31.1667 109.5,31.5C 106.482,31.3354 103.482,31.502 100.5,32C 103.402,32.9186 103.735,33.7519 101.5,34.5C 100.391,33.71 99.0581,33.21 97.5,33C 98.1667,32.6667 98.8333,32.3333 99.5,32C 97.1902,31.5034 94.8568,31.3367 92.5,31.5C 92.238,32.9778 92.5713,34.3112 93.5,35.5C 94.3957,34.4937 95.0623,34.4937 95.5,35.5C 95.0431,36.2975 94.3764,36.6309 93.5,36.5C 90.5,37.8333 87.5,37.8333 84.5,36.5C 84.5,35.1667 84.5,33.8333 84.5,32.5C 82.8333,32.5 81.1667,32.5 79.5,32.5C 82.6248,31.5206 85.9581,31.1872 89.5,31.5C 89.5,26.1667 89.5,20.8333 89.5,15.5 Z"/></g>
<g><path style="opacity:1" fill="#e5bd01" d="M 97.5,26.5 C 98.8333,26.5 100.167,26.5 101.5,26.5C 101.263,27.791 101.596,28.791 102.5,29.5C 102.833,29.5 103.167,29.5 103.5,29.5C 101.167,30.8333 98.8333,30.8333 96.5,29.5C 97.404,28.791 97.7373,27.791 97.5,26.5 Z"/></g>
<g><path style="opacity:1" fill="#e7be01" d="M 94.5,29.5 C 94.8333,29.5 95.1667,29.5 95.5,29.5C 94.0813,30.4511 92.4147,30.7845 90.5,30.5C 90.5,29.1667 90.5,27.8333 90.5,26.5C 91.5,26.5 92.5,26.5 93.5,26.5C 93.2627,27.791 93.596,28.791 94.5,29.5 Z"/></g>
<g><path style="opacity:1" fill="#0f0b00" d="M 97.5,25.5 C 97.5,25.8333 97.5,26.1667 97.5,26.5C 97.7373,27.791 97.404,28.791 96.5,29.5C 96.1667,29.5 95.8333,29.5 95.5,29.5C 95.1667,29.5 94.8333,29.5 94.5,29.5C 94.5,27.5 94.5,25.5 94.5,23.5C 95.209,22.596 96.209,22.2627 97.5,22.5C 97.5,23.5 97.5,24.5 97.5,25.5 Z"/></g>
<g><path style="opacity:1" fill="#dab401" d="M 105.5,25.5 C 105.332,22.9486 104.332,22.2819 102.5,23.5C 101.778,23.9175 101.278,24.5842 101,25.5C 100.51,24.2068 100.343,22.8734 100.5,21.5C 102.833,21.5 105.167,21.5 107.5,21.5C 107.843,23.4832 107.176,24.8166 105.5,25.5 Z"/></g>
<g><path style="opacity:1" fill="#d9b301" d="M 97.5,25.5 C 97.5,24.5 97.5,23.5 97.5,22.5C 96.209,22.2627 95.209,22.596 94.5,23.5C 93.5326,24.8062 92.1993,25.4729 90.5,25.5C 90.5,24.1667 90.5,22.8333 90.5,21.5C 93.5,21.5 96.5,21.5 99.5,21.5C 99.8432,23.4832 99.1765,24.8166 97.5,25.5 Z"/></g>
<g><path style="opacity:1" fill="#e5bd01" d="M 96.5,16.5 C 100.5,16.5 104.5,16.5 108.5,16.5C 108.5,17.8333 108.5,19.1667 108.5,20.5C 104.5,20.5 100.5,20.5 96.5,20.5C 96.5,19.1667 96.5,17.8333 96.5,16.5 Z"/></g>
<g><path style="opacity:1" fill="#e9c001" d="M 90.5,16.5 C 92.1667,16.5 93.8333,16.5 95.5,16.5C 95.5,17.8333 95.5,19.1667 95.5,20.5C 93.8333,20.5 92.1667,20.5 90.5,20.5C 90.5,19.1667 90.5,17.8333 90.5,16.5 Z"/></g>
<g><path style="opacity:1" fill="#b19205" d="M 33.5,19.5 C 33.4125,22.5983 33.9125,22.9316 35,20.5C 35.6284,23.9535 36.7951,24.2869 38.5,21.5C 39.3984,22.1577 40.3984,22.8243 41.5,23.5C 39.6261,30.3997 41.6261,35.733 47.5,39.5C 47.3601,41.1238 48.0267,42.2904 49.5,43C 48.552,43.4828 47.552,43.6495 46.5,43.5C 46.3491,40.2819 45.5158,39.9485 44,42.5C 42.3117,41.6753 42.1451,40.6753 43.5,39.5C 42.8333,38.1667 41.8333,37.1667 40.5,36.5C 39.5745,37.6405 38.7412,37.6405 38,36.5C 38.9845,38.5979 38.6511,40.5979 37,42.5C 36.2588,41.3595 35.4255,41.3595 34.5,42.5C 33.4777,42.1445 32.811,41.4778 32.5,40.5C 33.3764,40.6309 34.0431,40.2975 34.5,39.5C 33.9479,37.6666 33.1145,35.9999 32,34.5C 31.3603,36.265 31.5269,37.9317 32.5,39.5C 30.9519,39.8212 30.2852,40.8212 30.5,42.5C 27.7726,37.0059 27.1059,37.3392 28.5,43.5C 27.5084,43.3284 26.8417,43.6618 26.5,44.5C 25.2638,42.351 24.2638,40.0177 23.5,37.5C 27.2778,36.8066 27.2778,35.6399 23.5,34C 25.1667,32.3333 26.8333,30.6667 28.5,29C 30.0613,28.8119 30.728,29.6453 30.5,31.5C 32.8809,30.5804 35.2143,30.5804 37.5,31.5C 37.8333,31.1667 38.1667,30.8333 38.5,30.5C 35.9244,29.1166 36.2577,28.2833 39.5,28C 37.5318,26.4558 35.3651,25.2891 33,24.5C 32.6411,27.5443 31.9745,27.8776 31,25.5C 27.3329,28.0012 24.1662,31.0012 21.5,34.5C 20.5386,32.7354 20.2053,30.7354 20.5,28.5C 22.6719,27.1989 25.0052,26.1989 27.5,25.5C 27.5,24.5 27.5,23.5 27.5,22.5C 28.5,22.5 29.5,22.5 30.5,22.5C 30.183,19.4655 31.183,18.4655 33.5,19.5 Z"/></g>
<g><path style="opacity:1" fill="#e9c001" d="M 85.5,32.5 C 86.5,32.5 87.5,32.5 88.5,32.5C 88.5,33.5 88.5,34.5 88.5,35.5C 87.5,35.5 86.5,35.5 85.5,35.5C 85.5,34.5 85.5,33.5 85.5,32.5 Z"/></g>
<g><path style="opacity:1" fill="#e1b907" d="M 66.5,34.5 C 68.1667,34.5 69.8333,34.5 71.5,34.5C 71.5,35.5 71.5,36.5 71.5,37.5C 68.65,37.6361 65.8166,37.9695 63,38.5C 61.3189,38.3917 60.1522,37.7251 59.5,36.5C 61.5145,35.0762 63.8478,34.4095 66.5,34.5 Z"/></g>
<g><path style="opacity:1" fill="#e2ba04" d="M 130.5,34.5 C 133.727,34.6761 136.727,35.3428 139.5,36.5C 138.848,37.7251 137.681,38.3917 136,38.5C 133.183,37.9695 130.35,37.6361 127.5,37.5C 127.5,36.5 127.5,35.5 127.5,34.5C 128.5,34.5 129.5,34.5 130.5,34.5 Z"/></g>
<g><path style="opacity:1" fill="#110d00" d="M 32.5,40.5 C 32.5,40.1667 32.5,39.8333 32.5,39.5C 31.5269,37.9317 31.3603,36.265 32,34.5C 33.1145,35.9999 33.9479,37.6666 34.5,39.5C 34.0431,40.2975 33.3764,40.6309 32.5,40.5 Z"/></g>
<g><path style="opacity:1" fill="#e1ba05" d="M 54.5,37.5 C 55.9778,37.238 57.3112,37.5713 58.5,38.5C 55.997,39.9643 53.3303,41.131 50.5,42C 52.8856,42.2835 53.5523,43.2835 52.5,45C 50.5643,45.813 48.5643,46.313 46.5,46.5C 46.5,45.5 46.5,44.5 46.5,43.5C 47.552,43.6495 48.552,43.4828 49.5,43C 48.0267,42.2904 47.3601,41.1238 47.5,39.5C 49.5994,38.3882 51.9327,37.7215 54.5,37.5 Z"/></g>
<g><path style="opacity:1" fill="#e5bd02" d="M 115.5,32.5 C 119.198,32.5524 122.865,32.8857 126.5,33.5C 126.714,35.1439 126.38,36.6439 125.5,38C 127.5,38.3333 129.5,38.6667 131.5,39C 132.517,40.0495 132.684,41.2161 132,42.5C 128.255,41.5116 124.422,40.845 120.5,40.5C 120.5,39.5 120.5,38.5 120.5,37.5C 121.873,37.6567 123.207,37.49 124.5,37C 121.146,36.5448 117.813,36.0448 114.5,35.5C 114.263,34.209 114.596,33.209 115.5,32.5 Z"/></g>
<g><path style="opacity:1" fill="#dfb801" d="M 140.5,36.5 C 144.227,37.348 147.893,38.348 151.5,39.5C 151.64,41.1238 150.973,42.2904 149.5,43C 150.448,43.4828 151.448,43.6495 152.5,43.5C 152.5,44.5 152.5,45.5 152.5,46.5C 150.181,45.833 147.847,45.6664 145.5,46C 147.044,46.2896 148.377,46.9563 149.5,48C 145.502,48.5836 141.835,47.7503 138.5,45.5C 141.131,43.9954 140.797,43.3287 137.5,43.5C 137.5,44.5 137.5,45.5 137.5,46.5C 133.846,46.0578 130.179,45.7244 126.5,45.5C 126.5,44.5 126.5,43.5 126.5,42.5C 129.493,43.1346 132.493,43.3013 135.5,43C 134.027,42.2904 133.36,41.1238 133.5,39.5C 136.141,40.2631 138.808,40.4298 141.5,40C 140.663,38.9887 140.33,37.8221 140.5,36.5 Z"/></g>
<g><path style="opacity:1" fill="#0c0900" d="M 30.5,42.5 C 29.9941,44.1054 29.3274,44.4387 28.5,43.5C 27.1059,37.3392 27.7726,37.0059 30.5,42.5 Z"/></g>
<g><path style="opacity:1" fill="#a38707" d="M 75.5,32.5 C 74.791,33.404 73.791,33.7373 72.5,33.5C 72.5,35.1667 72.5,36.8333 72.5,38.5C 70.8008,38.3398 69.1341,38.5065 67.5,39C 66.1667,40.3333 66.1667,41.6667 67.5,43C 65.8333,43.6667 64.1667,43.6667 62.5,43C 63.448,42.5172 64.448,42.3505 65.5,42.5C 65.5,41.5 65.5,40.5 65.5,39.5C 61.8333,40.1667 58.1667,40.8333 54.5,41.5C 54.5,42.5 54.5,43.5 54.5,44.5C 55.5,44.5 56.5,44.5 57.5,44.5C 55.337,45.4691 53.0037,46.3024 50.5,47C 49.6634,48.0113 49.33,49.1779 49.5,50.5C 48.5,50.5 47.5,50.5 46.5,50.5C 46.6107,49.8826 46.944,49.3826 47.5,49C 45.6079,48.0266 43.6079,47.3599 41.5,47C 42.7604,45.887 43.927,45.7203 45,46.5C 45.6172,45.5509 45.4506,44.7175 44.5,44C 45.0944,43.5357 45.7611,43.369 46.5,43.5C 46.5,44.5 46.5,45.5 46.5,46.5C 48.5643,46.313 50.5643,45.813 52.5,45C 53.5523,43.2835 52.8856,42.2835 50.5,42C 53.3303,41.131 55.997,39.9643 58.5,38.5C 57.3112,37.5713 55.9778,37.238 54.5,37.5C 55.9187,36.5489 57.5853,36.2155 59.5,36.5C 60.1522,37.7251 61.3189,38.3917 63,38.5C 65.8166,37.9695 68.65,37.6361 71.5,37.5C 71.5,36.5 71.5,35.5 71.5,34.5C 69.8333,34.5 68.1667,34.5 66.5,34.5C 69.2727,33.3428 72.2727,32.6761 75.5,32.5 Z"/></g>
<g><path style="opacity:1" fill="#e3bb01" d="M 75.5,32.5 C 76.8333,32.5 78.1667,32.5 79.5,32.5C 81.1667,32.5 82.8333,32.5 84.5,32.5C 84.5,33.8333 84.5,35.1667 84.5,36.5C 87.5,37.8333 90.5,37.8333 93.5,36.5C 93.5,37.8333 93.5,39.1667 93.5,40.5C 88.8333,40.5 84.1667,40.5 79.5,40.5C 79.3601,38.8762 80.0267,37.7096 81.5,37C 79.1667,36.3333 76.8333,36.3333 74.5,37C 75.7932,37.49 77.1266,37.6567 78.5,37.5C 78.5,38.8333 78.5,40.1667 78.5,41.5C 81.5719,41.1826 84.5719,41.5159 87.5,42.5C 87.1667,42.8333 86.8333,43.1667 86.5,43.5C 82.2351,44.4386 77.9017,44.7719 73.5,44.5C 73.5,43.5 73.5,42.5 73.5,41.5C 67.8333,41.6636 67.5,41.9969 72.5,42.5C 72.5,43.5 72.5,44.5 72.5,45.5C 68.8019,45.5524 65.1352,45.8857 61.5,46.5C 61.5,45.5 61.5,44.5 61.5,43.5C 59.901,43.2322 58.5676,43.5655 57.5,44.5C 56.5,44.5 55.5,44.5 54.5,44.5C 54.5,43.5 54.5,42.5 54.5,41.5C 58.1667,40.8333 61.8333,40.1667 65.5,39.5C 65.5,40.5 65.5,41.5 65.5,42.5C 64.448,42.3505 63.448,42.5172 62.5,43C 64.1667,43.6667 65.8333,43.6667 67.5,43C 66.1667,41.6667 66.1667,40.3333 67.5,39C 69.1341,38.5065 70.8008,38.3398 72.5,38.5C 72.5,36.8333 72.5,35.1667 72.5,33.5C 73.791,33.7373 74.791,33.404 75.5,32.5 Z"/></g>
<g><path style="opacity:1" fill="#d3ae01" d="M 101.5,34.5 C 103.735,33.7519 103.402,32.9186 100.5,32C 103.482,31.502 106.482,31.3354 109.5,31.5C 109.5,32.8333 109.5,34.1667 109.5,35.5C 107.833,35.5 106.167,35.5 104.5,35.5C 104.5,38.8333 104.5,42.1667 104.5,45.5C 108.182,45.3347 111.848,45.5014 115.5,46C 113.654,47.9991 111.321,48.8324 108.5,48.5C 106.359,48.3868 104.525,47.7201 103,46.5C 101.302,47.733 99.3023,48.3996 97,48.5C 94.6977,48.3996 92.6977,47.733 91,46.5C 88.1422,48.1784 84.9756,49.1784 81.5,49.5C 80.4063,48.132 80.7397,46.9653 82.5,46C 85.1667,45.6667 87.8333,45.3333 90.5,45C 89.0267,44.2904 88.3601,43.1238 88.5,41.5C 91.0412,41.8514 92.7079,41.5181 93.5,40.5C 93.5,39.1667 93.5,37.8333 93.5,36.5C 94.3764,36.6309 95.0431,36.2975 95.5,35.5C 95.0623,34.4937 94.3957,34.4937 93.5,35.5C 92.5713,34.3112 92.238,32.9778 92.5,31.5C 94.8568,31.3367 97.1902,31.5034 99.5,32C 98.8333,32.3333 98.1667,32.6667 97.5,33C 99.0581,33.21 100.391,33.71 101.5,34.5 Z"/></g>
<g><path style="opacity:1" fill="#151002" d="M 101.5,34.5 C 103.299,37.5046 103.966,40.838 103.5,44.5C 101.167,44.5 98.8333,44.5 96.5,44.5C 96.3359,41.8127 96.5026,39.146 97,36.5C 98.1096,34.9632 99.6096,34.2965 101.5,34.5 Z"/></g>
<g><path style="opacity:1" fill="#c7a401" d="M 46.5,43.5 C 45.7611,43.369 45.0944,43.5357 44.5,44C 45.4506,44.7175 45.6172,45.5509 45,46.5C 43.927,45.7203 42.7604,45.887 41.5,47C 43.6079,47.3599 45.6079,48.0266 47.5,49C 46.944,49.3826 46.6107,49.8826 46.5,50.5C 45.5041,50.5858 44.6708,50.2524 44,49.5C 43.6924,50.3081 43.1924,50.9747 42.5,51.5C 41.0559,48.7736 39.0559,47.7736 36.5,48.5C 34.5774,45.7822 33.244,46.1155 32.5,49.5C 30.1205,50.5669 29.1205,49.5669 29.5,46.5C 28.5,46.5 27.5,46.5 26.5,46.5C 26.5,45.8333 26.5,45.1667 26.5,44.5C 26.8417,43.6618 27.5084,43.3284 28.5,43.5C 29.3274,44.4387 29.9941,44.1054 30.5,42.5C 30.2852,40.8212 30.9519,39.8212 32.5,39.5C 32.5,39.8333 32.5,40.1667 32.5,40.5C 32.811,41.4778 33.4777,42.1445 34.5,42.5C 35.4255,41.3595 36.2588,41.3595 37,42.5C 38.6511,40.5979 38.9845,38.5979 38,36.5C 38.7412,37.6405 39.5745,37.6405 40.5,36.5C 41.8333,37.1667 42.8333,38.1667 43.5,39.5C 42.1451,40.6753 42.3117,41.6753 44,42.5C 45.5158,39.9485 46.3491,40.2819 46.5,43.5 Z"/></g>
<g><path style="opacity:1" fill="#110d00" d="M 36.5,48.5 C 37.4408,50.0495 38.1075,51.7162 38.5,53.5C 36.9731,53.427 35.9731,54.0937 35.5,55.5C 35.1667,55.5 34.8333,55.5 34.5,55.5C 34.0293,53.4214 33.3627,51.4214 32.5,49.5C 33.244,46.1155 34.5774,45.7822 36.5,48.5 Z"/></g>
<g><path style="opacity:1" fill="#120d00" d="M 164.5,55.5 C 164.167,55.5 163.833,55.5 163.5,55.5C 162.34,54.735 161.34,53.735 160.5,52.5C 161.18,51.1401 161.847,49.8068 162.5,48.5C 164.088,45.7817 165.421,45.9484 166.5,49C 165.726,51.1542 165.059,53.3208 164.5,55.5 Z"/></g>
<g><path style="opacity:1" fill="#9c8100" d="M 46.5,50.5 C 45.8783,51.6266 45.045,52.6266 44,53.5C 42.2245,52.4639 40.3911,52.4639 38.5,53.5C 38.1075,51.7162 37.4408,50.0495 36.5,48.5C 39.0559,47.7736 41.0559,48.7736 42.5,51.5C 43.1924,50.9747 43.6924,50.3081 44,49.5C 44.6708,50.2524 45.5041,50.5858 46.5,50.5 Z"/></g>
<g><path style="opacity:1" fill="#a28501" d="M 109.5,31.5 C 111.735,31.2053 113.735,31.5386 115.5,32.5C 114.596,33.209 114.263,34.209 114.5,35.5C 117.813,36.0448 121.146,36.5448 124.5,37C 123.207,37.49 121.873,37.6567 120.5,37.5C 120.5,38.5 120.5,39.5 120.5,40.5C 124.422,40.845 128.255,41.5116 132,42.5C 132.684,41.2161 132.517,40.0495 131.5,39C 129.5,38.6667 127.5,38.3333 125.5,38C 126.38,36.6439 126.714,35.1439 126.5,33.5C 128.099,33.2322 129.432,33.5655 130.5,34.5C 129.5,34.5 128.5,34.5 127.5,34.5C 127.5,35.5 127.5,36.5 127.5,37.5C 130.35,37.6361 133.183,37.9695 136,38.5C 137.681,38.3917 138.848,37.7251 139.5,36.5C 139.833,36.5 140.167,36.5 140.5,36.5C 140.33,37.8221 140.663,38.9887 141.5,40C 138.808,40.4298 136.141,40.2631 133.5,39.5C 133.36,41.1238 134.027,42.2904 135.5,43C 132.493,43.3013 129.493,43.1346 126.5,42.5C 126.5,43.5 126.5,44.5 126.5,45.5C 130.179,45.7244 133.846,46.0578 137.5,46.5C 137.5,45.5 137.5,44.5 137.5,43.5C 140.797,43.3287 141.131,43.9954 138.5,45.5C 141.835,47.7503 145.502,48.5836 149.5,48C 148.377,46.9563 147.044,46.2896 145.5,46C 147.847,45.6664 150.181,45.833 152.5,46.5C 152.5,45.5 152.5,44.5 152.5,43.5C 153.239,43.369 153.906,43.5357 154.5,44C 153.167,45.8402 153.334,46.3402 155,45.5C 157.664,46.5337 157.831,48.2003 155.5,50.5C 155.833,50.8333 156.167,51.1667 156.5,51.5C 157.944,48.7736 159.944,47.7736 162.5,48.5C 161.847,49.8068 161.18,51.1401 160.5,52.5C 161.34,53.735 162.34,54.735 163.5,55.5C 161.139,55.3259 158.806,54.9926 156.5,54.5C 156.918,53.7784 157.584,53.2784 158.5,53C 154.914,51.8924 151.247,51.3924 147.5,51.5C 146.472,52.7874 146.805,53.9541 148.5,55C 148.333,55.5 148.167,56 148,56.5C 144.395,53.7178 140.229,52.3845 135.5,52.5C 135.137,50.0885 136.137,48.5885 138.5,48C 134.446,47.3064 130.446,47.4731 126.5,48.5C 128.811,50.0682 131.478,50.9016 134.5,51C 131.447,51.1786 128.447,51.6786 125.5,52.5C 127.933,54.0538 130.6,54.7204 133.5,54.5C 133.5,54.8333 133.5,55.1667 133.5,55.5C 132.833,55.5 132.167,55.5 131.5,55.5C 130.833,55.5 130.167,55.5 129.5,55.5C 126.236,54.6758 122.902,54.3424 119.5,54.5C 118.833,54.5 118.5,54.1667 118.5,53.5C 120.5,53.5 122.5,53.5 124.5,53.5C 124.5,52.5 124.5,51.5 124.5,50.5C 120.351,49.9197 116.684,50.5864 113.5,52.5C 113.5,52.8333 113.5,53.1667 113.5,53.5C 111.167,53.5 108.833,53.5 106.5,53.5C 106.5,54.5 106.5,55.5 106.5,56.5C 108.833,56.5 111.167,56.5 113.5,56.5C 113.5,57.1667 113.5,57.8333 113.5,58.5C 110.609,57.5975 107.609,57.2641 104.5,57.5C 103.209,57.2627 102.209,57.596 101.5,58.5C 99.8561,58.2865 98.3561,58.6198 97,59.5C 96.5017,62.8168 96.335,66.1501 96.5,69.5C 96.5,69.8333 96.5,70.1667 96.5,70.5C 95.448,70.6495 94.448,70.4828 93.5,70C 94.3802,68.6439 94.7135,67.1439 94.5,65.5C 92.1667,65.5 89.8333,65.5 87.5,65.5C 87.5,67.1667 87.5,68.8333 87.5,70.5C 85.0672,70.2729 83.4006,71.2729 82.5,73.5C 82.1667,73.5 81.8333,73.5 81.5,73.5C 81.4142,72.5041 81.7476,71.6708 82.5,71C 80.102,70.6256 77.7687,70.6256 75.5,71C 74.6198,69.6439 74.2865,68.1439 74.5,66.5C 70.1798,67.1649 65.8465,67.8316 61.5,68.5C 59.3199,67.7274 57.3199,66.7274 55.5,65.5C 57.9542,64.3794 60.6209,63.546 63.5,63C 62.6243,61.4152 61.2909,60.4152 59.5,60C 62.1168,59.1785 64.7835,58.6785 67.5,58.5C 67.719,57.325 67.3857,56.325 66.5,55.5C 64.2324,56.5443 61.8991,56.711 59.5,56C 61.0609,55.6824 62.2276,54.8491 63,53.5C 66.6929,55.0171 70.1929,54.6838 73.5,52.5C 67.0884,51.4538 60.7551,51.9538 54.5,54C 52.9391,54.3176 51.7724,55.1509 51,56.5C 50.4387,55.9781 49.772,55.6448 49,55.5C 46.8417,56.451 44.675,56.951 42.5,57C 44.6349,55.6189 46.9682,54.6189 49.5,54C 50.1905,52.9326 50.6905,51.7659 51,50.5C 51.2492,51.624 51.7492,52.624 52.5,53.5C 55.7513,53.2917 58.0846,51.7917 59.5,49C 57.8333,48.6667 56.1667,48.3333 54.5,48C 56.7801,47.7674 58.7801,46.934 60.5,45.5C 59.675,44.6143 58.675,44.281 57.5,44.5C 58.5676,43.5655 59.901,43.2322 61.5,43.5C 61.5,44.5 61.5,45.5 61.5,46.5C 65.1352,45.8857 68.8019,45.5524 72.5,45.5C 72.5,44.5 72.5,43.5 72.5,42.5C 67.5,41.9969 67.8333,41.6636 73.5,41.5C 73.5,42.5 73.5,43.5 73.5,44.5C 77.9017,44.7719 82.2351,44.4386 86.5,43.5C 86.8333,43.1667 87.1667,42.8333 87.5,42.5C 84.5719,41.5159 81.5719,41.1826 78.5,41.5C 78.5,40.1667 78.5,38.8333 78.5,37.5C 77.1266,37.6567 75.7932,37.49 74.5,37C 76.8333,36.3333 79.1667,36.3333 81.5,37C 80.0267,37.7096 79.3601,38.8762 79.5,40.5C 84.1667,40.5 88.8333,40.5 93.5,40.5C 92.7079,41.5181 91.0412,41.8514 88.5,41.5C 88.3601,43.1238 89.0267,44.2904 90.5,45C 87.8333,45.3333 85.1667,45.6667 82.5,46C 80.7397,46.9653 80.4063,48.132 81.5,49.5C 84.9756,49.1784 88.1422,48.1784 91,46.5C 92.6977,47.733 94.6977,48.3996 97,48.5C 99.3023,48.3996 101.302,47.733 103,46.5C 104.525,47.7201 106.359,48.3868 108.5,48.5C 111.321,48.8324 113.654,47.9991 115.5,46C 111.848,45.5014 108.182,45.3347 104.5,45.5C 104.5,42.1667 104.5,38.8333 104.5,35.5C 106.167,35.5 107.833,35.5 109.5,35.5C 109.5,34.1667 109.5,32.8333 109.5,31.5 Z"/></g>
<g><path style="opacity:1" fill="#e8bf01" d="M 118.5,53.5 C 116.958,52.6993 115.292,52.366 113.5,52.5C 116.684,50.5864 120.351,49.9197 124.5,50.5C 124.5,51.5 124.5,52.5 124.5,53.5C 122.5,53.5 120.5,53.5 118.5,53.5 Z"/></g>
<g><path style="opacity:1" fill="#e7be01" d="M 74.5,50.5 C 78.226,50.1774 81.8927,50.5108 85.5,51.5C 82.0602,53.2235 78.3935,53.8902 74.5,53.5C 74.5,52.5 74.5,51.5 74.5,50.5 Z"/></g>
<g><path style="opacity:1" fill="#e8bf01" d="M 147.5,51.5 C 143.844,52.5153 140.177,52.3486 136.5,51C 140.309,49.4118 144.309,49.0784 148.5,50C 147.944,50.3826 147.611,50.8826 147.5,51.5 Z"/></g>
<g><path style="opacity:1" fill="#e8bf01" d="M 100.5,49.5 C 104.5,49.5 108.5,49.5 112.5,49.5C 112.5,50.5 112.5,51.5 112.5,52.5C 108.5,52.5 104.5,52.5 100.5,52.5C 100.5,51.5 100.5,50.5 100.5,49.5 Z"/></g>
<g><path style="opacity:1" fill="#e8bf01" d="M 86.5,49.5 C 90.5,49.5 94.5,49.5 98.5,49.5C 98.5,50.5 98.5,51.5 98.5,52.5C 94.5,52.5 90.5,52.5 86.5,52.5C 86.5,51.5 86.5,50.5 86.5,49.5 Z"/></g>
<g><path style="opacity:1" fill="#e6bd01" d="M 70.5,47.5 C 67.8087,50.1768 64.4753,51.5101 60.5,51.5C 60.3601,49.8762 61.0267,48.7096 62.5,48C 64.5,47.5 66.5,47 68.5,46.5C 69.4164,46.5427 70.0831,46.8761 70.5,47.5 Z"/></g>
<g><path style="opacity:1" fill="#e4bc01" d="M 126.5,48.5 C 122.877,49.7582 119.21,49.7582 115.5,48.5C 119.008,45.0857 123.008,44.5857 127.5,47C 126.944,47.3826 126.611,47.8826 126.5,48.5 Z"/></g>
<g><path style="opacity:1" fill="#e7be01" d="M 70.5,47.5 C 73.7045,46.0403 77.0378,45.5403 80.5,46C 77.4322,49.7837 74.0989,50.2837 70.5,47.5 Z"/></g>
<g><path style="opacity:1" fill="#dbb501" d="M 105.5,36.5 C 107.167,36.5 108.833,36.5 110.5,36.5C 110.5,38.1667 110.5,39.8333 110.5,41.5C 115.673,41.0903 120.673,41.757 125.5,43.5C 118.776,44.0418 112.109,44.3751 105.5,44.5C 105.5,41.8333 105.5,39.1667 105.5,36.5 Z"/></g>
<g><path style="opacity:1" fill="#e6be01" d="M 111.5,36.5 C 114.206,36.5751 116.873,36.9084 119.5,37.5C 119.5,38.5 119.5,39.5 119.5,40.5C 116.833,40.5 114.167,40.5 111.5,40.5C 111.5,39.1667 111.5,37.8333 111.5,36.5 Z"/></g>
<g><path style="opacity:1" fill="#e4bc01" d="M 147.5,51.5 C 151.247,51.3924 154.914,51.8924 158.5,53C 157.584,53.2784 156.918,53.7784 156.5,54.5C 154.213,55.3552 151.88,55.5218 149.5,55C 152,55.8854 154.333,57.0521 156.5,58.5C 156.192,59.3081 155.692,59.9747 155,60.5C 153.103,58.9837 150.936,58.317 148.5,58.5C 143.745,56.6752 138.745,55.3419 133.5,54.5C 130.6,54.7204 127.933,54.0538 125.5,52.5C 128.447,51.6786 131.447,51.1786 134.5,51C 131.478,50.9016 128.811,50.0682 126.5,48.5C 130.446,47.4731 134.446,47.3064 138.5,48C 136.137,48.5885 135.137,50.0885 135.5,52.5C 140.229,52.3845 144.395,53.7178 148,56.5C 148.167,56 148.333,55.5 148.5,55C 146.805,53.9541 146.472,52.7874 147.5,51.5 Z"/></g>
<g><path style="opacity:1" fill="#e7bf01" d="M 83.5,53.5 C 86.5,53.5 89.5,53.5 92.5,53.5C 92.5,54.5 92.5,55.5 92.5,56.5C 88.774,56.8226 85.1073,56.4892 81.5,55.5C 82.2427,54.8182 82.9094,54.1515 83.5,53.5 Z"/></g>
<g><path style="opacity:1" fill="#e5bd01" d="M 93.5,53.5 C 97.5,53.5 101.5,53.5 105.5,53.5C 105.5,54.5 105.5,55.5 105.5,56.5C 101.5,57.8333 97.5,57.8333 93.5,56.5C 93.5,55.5 93.5,54.5 93.5,53.5 Z"/></g>
<g><path style="opacity:1" fill="#e7bf01" d="M 113.5,53.5 C 118.639,54.9407 118.639,55.9407 113.5,56.5C 111.167,56.5 108.833,56.5 106.5,56.5C 106.5,55.5 106.5,54.5 106.5,53.5C 108.833,53.5 111.167,53.5 113.5,53.5 Z"/></g>
<g><path style="opacity:1" fill="#ab8d0d" d="M 26.5,46.5 C 27.5,46.5 28.5,46.5 29.5,46.5C 29.1205,49.5669 30.1205,50.5669 32.5,49.5C 33.3627,51.4214 34.0293,53.4214 34.5,55.5C 32.1963,57.7034 32.0296,60.0367 34,62.5C 35.0217,61.646 35.8551,60.646 36.5,59.5C 35.8019,57.9631 35.4685,56.6298 35.5,55.5C 35.9731,54.0937 36.9731,53.427 38.5,53.5C 37.3896,58.6877 36.723,64.0211 36.5,69.5C 35.5224,66.6407 33.5224,64.6407 30.5,63.5C 30.0145,57.5921 28.6812,51.9254 26.5,46.5 Z"/></g>
<g><path style="opacity:1" fill="#e7be01" d="M 34.5,55.5 C 34.8333,55.5 35.1667,55.5 35.5,55.5C 35.4685,56.6298 35.8019,57.9631 36.5,59.5C 35.8551,60.646 35.0217,61.646 34,62.5C 32.0296,60.0367 32.1963,57.7034 34.5,55.5 Z"/></g>
<g><path style="opacity:1" fill="#e8bf01" d="M 87.5,57.5 C 90.1873,57.3359 92.854,57.5026 95.5,58C 93.3475,60.1651 90.6808,60.9984 87.5,60.5C 87.5,59.5 87.5,58.5 87.5,57.5 Z"/></g>
<g><path style="opacity:1" fill="#070500" d="M 101.5,58.5 C 102.423,62.0641 102.756,65.7307 102.5,69.5C 100.5,69.5 98.5,69.5 96.5,69.5C 96.335,66.1501 96.5017,62.8168 97,59.5C 98.3561,58.6198 99.8561,58.2865 101.5,58.5 Z"/></g>
<g><path style="opacity:1" fill="#e4bc01" d="M 74.5,62.5 C 71.8127,62.3359 69.146,62.5026 66.5,63C 67.9733,63.7096 68.6399,64.8762 68.5,66.5C 65.4116,67.0685 62.4116,67.0685 59.5,66.5C 61.2199,65.066 63.2199,64.2326 65.5,64C 64.1198,62.6764 63.7865,61.3431 64.5,60C 66.8333,59.6667 69.1667,59.3333 71.5,59C 70.0267,58.2904 69.3601,57.1238 69.5,55.5C 72.7861,54.7929 76.1194,54.4595 79.5,54.5C 79.5,55.5 79.5,56.5 79.5,57.5C 77.1432,57.3367 74.8098,57.5034 72.5,58C 74.1066,59.049 74.7733,60.549 74.5,62.5 Z"/></g>
<g><path style="opacity:1" fill="#e5bd01" d="M 139.5,67.5 C 136.518,67.0371 133.518,66.7038 130.5,66.5C 130.33,65.1779 130.663,64.0113 131.5,63C 129.866,62.5065 128.199,62.3398 126.5,62.5C 125.414,62.38 124.747,61.7133 124.5,60.5C 124.833,59.8333 125.167,59.1667 125.5,58.5C 127.776,59.2132 130.109,59.7132 132.5,60C 135.167,61.3333 135.167,62.6667 132.5,64C 134.167,64.3333 135.833,64.6667 137.5,65C 138.756,65.4169 139.423,66.2502 139.5,67.5 Z"/></g>
<g><path style="opacity:1" fill="#d3ae04" d="M 57.5,44.5 C 58.675,44.281 59.675,44.6143 60.5,45.5C 58.7801,46.934 56.7801,47.7674 54.5,48C 56.1667,48.3333 57.8333,48.6667 59.5,49C 58.0846,51.7917 55.7513,53.2917 52.5,53.5C 51.7492,52.624 51.2492,51.624 51,50.5C 50.6905,51.7659 50.1905,52.9326 49.5,54C 46.9682,54.6189 44.6349,55.6189 42.5,57C 44.675,56.951 46.8417,56.451 49,55.5C 49.772,55.6448 50.4387,55.9781 51,56.5C 51.7724,55.1509 52.9391,54.3176 54.5,54C 60.7551,51.9538 67.0884,51.4538 73.5,52.5C 70.1929,54.6838 66.6929,55.0171 63,53.5C 62.2276,54.8491 61.0609,55.6824 59.5,56C 61.8991,56.711 64.2324,56.5443 66.5,55.5C 67.3857,56.325 67.719,57.325 67.5,58.5C 64.7835,58.6785 62.1168,59.1785 59.5,60C 61.2909,60.4152 62.6243,61.4152 63.5,63C 60.6209,63.546 57.9542,64.3794 55.5,65.5C 53.7748,65.1575 53.2748,64.1575 54,62.5C 55.3988,61.7734 56.8988,61.2734 58.5,61C 55.7433,60.4163 53.0766,60.7496 50.5,62C 53.0191,64.4423 52.3524,65.9423 48.5,66.5C 45.4501,66.0305 45.1168,65.1971 47.5,64C 45.2305,63.2419 43.0639,63.4086 41,64.5C 40.5774,63.0439 39.7441,62.5439 38.5,63C 39.8952,65.0748 39.5619,66.9081 37.5,68.5C 38.0983,69.7946 38.5983,71.1279 39,72.5C 39.9862,71.8288 41.1529,71.8288 42.5,72.5C 42.6781,75.7454 44.0114,76.7454 46.5,75.5C 46.5858,76.4959 46.2524,77.3292 45.5,78C 46.0944,78.4643 46.7611,78.631 47.5,78.5C 46.828,79.2674 45.9947,79.9341 45,80.5C 44.3123,81.3317 44.479,81.9984 45.5,82.5C 49.6579,84.2896 53.9912,85.2896 58.5,85.5C 58.3359,82.8127 58.5026,80.146 59,77.5C 59.498,80.4816 59.6646,83.4816 59.5,86.5C 60.8333,86.5 62.1667,86.5 63.5,86.5C 63.6693,73.1832 64.1693,73.1832 65,86.5C 66.6995,87.4061 68.5328,87.7394 70.5,87.5C 70.5,83.5 70.5,79.5 70.5,75.5C 71.3238,79.3123 71.8238,83.3123 72,87.5C 72.3333,83.5 72.6667,79.5 73,75.5C 73.499,79.8206 73.6657,84.1539 73.5,88.5C 76.8499,88.665 80.1832,88.4983 83.5,88C 81.8659,87.5065 80.1992,87.3398 78.5,87.5C 78.5,83.1667 78.5,78.8333 78.5,74.5C 80.8333,74.5 83.1667,74.5 85.5,74.5C 85.5,79.1667 85.5,83.8333 85.5,88.5C 88.1667,88.5 90.8333,88.5 93.5,88.5C 93.0472,89.4584 92.3805,90.2917 91.5,91C 86.8452,91.4992 82.1785,91.6658 77.5,91.5C 65.4397,91.401 53.773,89.2343 42.5,85C 41.6667,84.1667 40.8333,83.3333 40,82.5C 39.1329,78.0684 37.9662,73.7351 36.5,69.5C 36.723,64.0211 37.3896,58.6877 38.5,53.5C 40.3911,52.4639 42.2245,52.4639 44,53.5C 45.045,52.6266 45.8783,51.6266 46.5,50.5C 47.5,50.5 48.5,50.5 49.5,50.5C 49.33,49.1779 49.6634,48.0113 50.5,47C 53.0037,46.3024 55.337,45.4691 57.5,44.5 Z"/></g>
<g><path style="opacity:1" fill="#e7be01" d="M 74.5,62.5 C 76.5,62.5 78.5,62.5 80.5,62.5C 80.5,63.5 80.5,64.5 80.5,65.5C 76.774,65.8226 73.1073,65.4892 69.5,64.5C 71.2914,63.8302 72.9581,63.1635 74.5,62.5 Z"/></g>
<g><path style="opacity:1" fill="#e0b901" d="M 75.5,58.5 C 79.1667,58.5 82.8333,58.5 86.5,58.5C 86.5,59.5 86.5,60.5 86.5,61.5C 88.5,61.5 90.5,61.5 92.5,61.5C 92.5,62.5 92.5,63.5 92.5,64.5C 90.5,64.5 88.5,64.5 86.5,64.5C 86.5,66.1667 86.5,67.8333 86.5,69.5C 82.8333,69.5 79.1667,69.5 75.5,69.5C 75.5,68.5 75.5,67.5 75.5,66.5C 78.1873,66.6641 80.854,66.4974 83.5,66C 80.8333,64.6667 80.8333,63.3333 83.5,62C 80.854,61.5026 78.1873,61.3359 75.5,61.5C 75.5,60.5 75.5,59.5 75.5,58.5 Z"/></g>
<g><path style="opacity:1" fill="#e3bb01" d="M 104.5,57.5 C 107.609,57.2641 110.609,57.5975 113.5,58.5C 116.833,58.5 120.167,58.5 123.5,58.5C 123.737,59.791 123.404,60.791 122.5,61.5C 119.813,61.3359 117.146,61.5026 114.5,62C 115.448,62.4828 116.448,62.6495 117.5,62.5C 117.5,63.5 117.5,64.5 117.5,65.5C 113.881,64.7564 110.215,64.423 106.5,64.5C 106.5,63.5 106.5,62.5 106.5,61.5C 108.527,61.6621 110.527,61.4955 112.5,61C 109.854,60.5026 107.187,60.3359 104.5,60.5C 104.5,59.5 104.5,58.5 104.5,57.5 Z"/></g>
<g><path style="opacity:1" fill="#b69604" d="M 160.5,75.5 C 158.847,75.3404 157.514,74.6737 156.5,73.5C 156.62,71.8014 156.954,70.1347 157.5,68.5C 157.547,66.9996 156.881,65.9996 155.5,65.5C 153.223,67.6433 151.89,70.3099 151.5,73.5C 149.264,73.5835 146.93,73.2502 144.5,72.5C 144.5,71.5 144.5,70.5 144.5,69.5C 143.448,69.6495 142.448,69.4828 141.5,69C 143.713,68.3744 145.88,68.5411 148,69.5C 149.811,68.5765 149.645,67.7431 147.5,67C 148.784,66.3162 149.951,66.4829 151,67.5C 151.833,66.6667 152.667,65.8333 153.5,65C 151.341,64.088 149.175,63.2546 147,62.5C 146.51,63.7932 146.343,65.1266 146.5,66.5C 144.856,66.7135 143.356,66.3802 142,65.5C 141.283,66.0442 140.783,66.7109 140.5,67.5C 140.167,67.5 139.833,67.5 139.5,67.5C 139.423,66.2502 138.756,65.4169 137.5,65C 135.833,64.6667 134.167,64.3333 132.5,64C 135.167,62.6667 135.167,61.3333 132.5,60C 130.109,59.7132 127.776,59.2132 125.5,58.5C 125.167,59.1667 124.833,59.8333 124.5,60.5C 124.747,61.7133 125.414,62.38 126.5,62.5C 126.5,62.8333 126.5,63.1667 126.5,63.5C 124.901,63.7678 123.568,63.4345 122.5,62.5C 122.5,62.1667 122.5,61.8333 122.5,61.5C 123.404,60.791 123.737,59.791 123.5,58.5C 120.167,58.5 116.833,58.5 113.5,58.5C 113.5,57.8333 113.5,57.1667 113.5,56.5C 118.639,55.9407 118.639,54.9407 113.5,53.5C 113.5,53.1667 113.5,52.8333 113.5,52.5C 115.292,52.366 116.958,52.6993 118.5,53.5C 118.5,54.1667 118.833,54.5 119.5,54.5C 119.5,55.5 119.5,56.5 119.5,57.5C 122.579,57.2601 125.579,57.5934 128.5,58.5C 129.386,57.675 129.719,56.675 129.5,55.5C 130.167,55.5 130.833,55.5 131.5,55.5C 131.5,56.5 131.5,57.5 131.5,58.5C 134.852,59.5527 138.185,59.5527 141.5,58.5C 138.908,57.0827 136.241,56.0827 133.5,55.5C 133.5,55.1667 133.5,54.8333 133.5,54.5C 138.745,55.3419 143.745,56.6752 148.5,58.5C 150.936,58.317 153.103,58.9837 155,60.5C 155.692,59.9747 156.192,59.3081 156.5,58.5C 154.333,57.0521 152,55.8854 149.5,55C 151.88,55.5218 154.213,55.3552 156.5,54.5C 156.389,55.1174 156.056,55.6174 155.5,56C 159.161,57.8055 162.995,58.9722 167,59.5C 166.807,57.9176 165.974,56.5843 164.5,55.5C 165.059,53.3208 165.726,51.1542 166.5,49C 165.421,45.9484 164.088,45.7817 162.5,48.5C 159.944,47.7736 157.944,48.7736 156.5,51.5C 156.167,51.1667 155.833,50.8333 155.5,50.5C 157.831,48.2003 157.664,46.5337 155,45.5C 153.334,46.3402 153.167,45.8402 154.5,44C 153.906,43.5357 153.239,43.369 152.5,43.5C 151.448,43.6495 150.448,43.4828 149.5,43C 150.973,42.2904 151.64,41.1238 151.5,39.5C 152.496,39.5858 153.329,39.2524 154,38.5C 157.584,33.8004 159.417,28.467 159.5,22.5C 161.833,21.1667 164.167,19.8333 166.5,18.5C 167.36,20.9307 169.027,22.264 171.5,22.5C 171.5,23.5 171.5,24.5 171.5,25.5C 173.995,26.1989 176.328,27.1989 178.5,28.5C 178.662,30.5273 178.495,32.5273 178,34.5C 172.749,43.4215 169.582,53.0882 168.5,63.5C 164.35,66.455 161.683,70.455 160.5,75.5 Z"/></g>
<g><path style="opacity:1" fill="#e6be01" d="M 144.5,61.5 C 145.626,62.8583 145.626,64.1916 144.5,65.5C 141.49,64.7308 138.49,63.8974 135.5,63C 135.998,61.8419 136.831,61.0085 138,60.5C 140.099,61.2865 142.266,61.6199 144.5,61.5 Z"/></g>
<g><path style="opacity:1" fill="#e5bd01" d="M 148.5,58.5 C 149.263,59.2679 150.263,59.7679 151.5,60C 150.953,60.9246 150.287,61.7579 149.5,62.5C 147.929,61.6906 146.262,61.3573 144.5,61.5C 143.722,60.8444 143.056,60.0111 142.5,59C 142.833,58.5 143.167,58 143.5,57.5C 145.071,58.3094 146.738,58.6427 148.5,58.5 Z"/></g>
<g><path style="opacity:1" fill="#e3bb01" d="M 156.5,54.5 C 158.806,54.9926 161.139,55.3259 163.5,55.5C 163.833,55.5 164.167,55.5 164.5,55.5C 165.974,56.5843 166.807,57.9176 167,59.5C 162.995,58.9722 159.161,57.8055 155.5,56C 156.056,55.6174 156.389,55.1174 156.5,54.5 Z"/></g>
<g><path style="opacity:1" fill="#e6be01" d="M 131.5,55.5 C 132.167,55.5 132.833,55.5 133.5,55.5C 136.241,56.0827 138.908,57.0827 141.5,58.5C 138.185,59.5527 134.852,59.5527 131.5,58.5C 131.5,57.5 131.5,56.5 131.5,55.5 Z"/></g>
<g><path style="opacity:1" fill="#e7be01" d="M 119.5,54.5 C 122.902,54.3424 126.236,54.6758 129.5,55.5C 129.719,56.675 129.386,57.675 128.5,58.5C 125.579,57.5934 122.579,57.2601 119.5,57.5C 119.5,56.5 119.5,55.5 119.5,54.5 Z"/></g>
<g><path style="opacity:1" fill="#110d00" d="M 170.5,38.5 C 171.819,40.6055 171.486,42.6055 169.5,44.5C 168.911,42.5188 169.245,40.5188 170.5,38.5 Z"/></g>
<g><path style="opacity:1" fill="#110d00" d="M 166.5,34.5 C 167.819,36.6055 167.486,38.6055 165.5,40.5C 164.911,38.5188 165.245,36.5188 166.5,34.5 Z"/></g>
<g><path style="opacity:1" fill="#9c8001" d="M 104.5,60.5 C 107.187,60.3359 109.854,60.5026 112.5,61C 110.527,61.4955 108.527,61.6621 106.5,61.5C 106.5,62.5 106.5,63.5 106.5,64.5C 110.215,64.423 113.881,64.7564 117.5,65.5C 117.5,64.5 117.5,63.5 117.5,62.5C 116.448,62.6495 115.448,62.4828 114.5,62C 117.146,61.5026 119.813,61.3359 122.5,61.5C 122.5,61.8333 122.5,62.1667 122.5,62.5C 121.167,62.5 119.833,62.5 118.5,62.5C 118.5,63.5 118.5,64.5 118.5,65.5C 122.226,65.8226 125.893,65.4892 129.5,64.5C 128.675,63.6143 127.675,63.281 126.5,63.5C 126.5,63.1667 126.5,62.8333 126.5,62.5C 128.199,62.3398 129.866,62.5065 131.5,63C 130.663,64.0113 130.33,65.1779 130.5,66.5C 133.518,66.7038 136.518,67.0371 139.5,67.5C 139.833,67.5 140.167,67.5 140.5,67.5C 139.081,68.4511 137.415,68.7845 135.5,68.5C 135.5,69.5 135.5,70.5 135.5,71.5C 138.545,71.5079 141.545,71.8413 144.5,72.5C 146.93,73.2502 149.264,73.5835 151.5,73.5C 153.33,77.2722 154.997,77.2722 156.5,73.5C 157.514,74.6737 158.847,75.3404 160.5,75.5C 160.073,78.0098 159.407,80.3432 158.5,82.5C 157.817,80.8235 156.483,80.1568 154.5,80.5C 153.833,80.5 153.5,80.1667 153.5,79.5C 155.199,79.6602 156.866,79.4935 158.5,79C 155.242,77.174 151.909,76.674 148.5,77.5C 148.804,76.8501 149.137,76.1835 149.5,75.5C 146.572,74.5159 143.572,74.1826 140.5,74.5C 138.365,72.631 135.698,71.9644 132.5,72.5C 129.302,71.3 125.969,71.3 122.5,72.5C 122.611,71.8826 122.944,71.3826 123.5,71C 120.518,70.502 117.518,70.3354 114.5,70.5C 114.5,70.1667 114.5,69.8333 114.5,69.5C 117.5,69.5 120.5,69.5 123.5,69.5C 123.5,68.5 123.5,67.5 123.5,66.5C 119.833,66.5 116.167,66.5 112.5,66.5C 112.5,67.5 112.5,68.5 112.5,69.5C 111.566,68.4324 111.232,67.099 111.5,65.5C 109.143,65.6633 106.81,65.4966 104.5,65C 105.728,63.5098 105.728,62.0098 104.5,60.5 Z"/></g>
<g><path style="opacity:1" fill="#e8bf01" d="M 122.5,62.5 C 123.568,63.4345 124.901,63.7678 126.5,63.5C 127.675,63.281 128.675,63.6143 129.5,64.5C 125.893,65.4892 122.226,65.8226 118.5,65.5C 118.5,64.5 118.5,63.5 118.5,62.5C 119.833,62.5 121.167,62.5 122.5,62.5 Z"/></g>
<g><path style="opacity:1" fill="#e4bc01" d="M 144.5,72.5 C 141.545,71.8413 138.545,71.5079 135.5,71.5C 135.5,70.5 135.5,69.5 135.5,68.5C 137.415,68.7845 139.081,68.4511 140.5,67.5C 140.783,66.7109 141.283,66.0442 142,65.5C 143.356,66.3802 144.856,66.7135 146.5,66.5C 146.343,65.1266 146.51,63.7932 147,62.5C 149.175,63.2546 151.341,64.088 153.5,65C 152.667,65.8333 151.833,66.6667 151,67.5C 149.951,66.4829 148.784,66.3162 147.5,67C 149.645,67.7431 149.811,68.5765 148,69.5C 145.88,68.5411 143.713,68.3744 141.5,69C 142.448,69.4828 143.448,69.6495 144.5,69.5C 144.5,70.5 144.5,71.5 144.5,72.5 Z"/></g>
<g><path style="opacity:1" fill="#070500" d="M 47.5,75.5 C 47.1667,75.5 46.8333,75.5 46.5,75.5C 44.0114,76.7454 42.6781,75.7454 42.5,72.5C 41.8505,70.5648 41.5172,68.5648 41.5,66.5C 42.9778,66.238 44.3112,66.5713 45.5,67.5C 46.7853,70.0205 47.4519,72.6872 47.5,75.5 Z"/></g>
<g><path style="opacity:1" fill="#e6bd01" d="M 114.5,69.5 C 113.833,69.5 113.167,69.5 112.5,69.5C 112.5,68.5 112.5,67.5 112.5,66.5C 116.167,66.5 119.833,66.5 123.5,66.5C 123.5,67.5 123.5,68.5 123.5,69.5C 120.5,69.5 117.5,69.5 114.5,69.5 Z"/></g>
<g><path style="opacity:1" fill="#0f0b00" d="M 156.5,73.5 C 154.997,77.2722 153.33,77.2722 151.5,73.5C 151.89,70.3099 153.223,67.6433 155.5,65.5C 156.881,65.9996 157.547,66.9996 157.5,68.5C 156.954,70.1347 156.62,71.8014 156.5,73.5 Z"/></g>
<g><path style="opacity:1" fill="#e6be01" d="M 124.5,66.5 C 127.846,67.003 131.179,67.6697 134.5,68.5C 134.291,69.086 133.957,69.586 133.5,70C 131.167,70.6667 128.833,70.6667 126.5,70C 125.027,69.2904 124.36,68.1238 124.5,66.5 Z"/></g>
<g><path style="opacity:1" fill="#d6b001" d="M 96.5,70.5 C 98.288,70.2148 99.9547,70.5481 101.5,71.5C 98.2913,72.7874 95.1247,72.7874 92,71.5C 90.0517,72.1094 88.2184,72.776 86.5,73.5C 85.1667,73.5 83.8333,73.5 82.5,73.5C 83.4006,71.2729 85.0672,70.2729 87.5,70.5C 87.5,68.8333 87.5,67.1667 87.5,65.5C 89.8333,65.5 92.1667,65.5 94.5,65.5C 94.7135,67.1439 94.3802,68.6439 93.5,70C 94.448,70.4828 95.448,70.6495 96.5,70.5 Z"/></g>
<g><path style="opacity:1" fill="#b89801" d="M 104.5,57.5 C 104.5,58.5 104.5,59.5 104.5,60.5C 105.728,62.0098 105.728,63.5098 104.5,65C 106.81,65.4966 109.143,65.6633 111.5,65.5C 111.232,67.099 111.566,68.4324 112.5,69.5C 113.167,69.5 113.833,69.5 114.5,69.5C 114.5,69.8333 114.5,70.1667 114.5,70.5C 114.167,71.5 113.5,72.1667 112.5,72.5C 112.167,72.5 111.833,72.5 111.5,72.5C 111.611,71.8826 111.944,71.3826 112.5,71C 109.036,70.1834 105.702,70.5167 102.5,72C 102.957,72.414 103.291,72.914 103.5,73.5C 98.544,74.4941 93.544,74.8275 88.5,74.5C 88.1583,73.6618 87.4916,73.3284 86.5,73.5C 88.2184,72.776 90.0517,72.1094 92,71.5C 95.1247,72.7874 98.2913,72.7874 101.5,71.5C 99.9547,70.5481 98.288,70.2148 96.5,70.5C 96.5,70.1667 96.5,69.8333 96.5,69.5C 98.5,69.5 100.5,69.5 102.5,69.5C 102.756,65.7307 102.423,62.0641 101.5,58.5C 102.209,57.596 103.209,57.2627 104.5,57.5 Z"/></g>
<g><path style="opacity:1" fill="#e6bd01" d="M 114.5,70.5 C 117.518,70.3354 120.518,70.502 123.5,71C 122.944,71.3826 122.611,71.8826 122.5,72.5C 119.064,73.7815 115.731,73.7815 112.5,72.5C 113.5,72.1667 114.167,71.5 114.5,70.5 Z"/></g>
<g><path style="opacity:1" fill="#e6be01" d="M 132.5,72.5 C 130.084,73.9682 127.417,74.6349 124.5,74.5C 123.833,74.5 123.167,74.5 122.5,74.5C 122.5,73.8333 122.5,73.1667 122.5,72.5C 125.969,71.3 129.302,71.3 132.5,72.5 Z"/></g>
<g><path style="opacity:1" fill="#e3bb01" d="M 132.5,72.5 C 135.698,71.9644 138.365,72.631 140.5,74.5C 139.609,75.1098 138.609,75.4431 137.5,75.5C 135.5,75.5 133.5,75.5 131.5,75.5C 131.557,74.391 131.89,73.391 132.5,72.5 Z"/></g>
<g><path style="opacity:1" fill="#a28601" d="M 55.5,65.5 C 53.444,66.1993 51.444,67.1993 49.5,68.5C 51.4401,69.5284 53.4401,69.5284 55.5,68.5C 57.8142,69.1227 57.4808,69.456 54.5,69.5C 54.5,70.5 54.5,71.5 54.5,72.5C 57.1411,71.7369 59.8078,71.5702 62.5,72C 59.8941,72.4505 58.5608,73.9505 58.5,76.5C 58.1667,76.5 57.8333,76.5 57.5,76.5C 57.5,75.5 57.5,74.5 57.5,73.5C 54.1382,75.0098 50.8049,75.6765 47.5,75.5C 47.4519,72.6872 46.7853,70.0205 45.5,67.5C 44.3112,66.5713 42.9778,66.238 41.5,66.5C 41.5172,68.5648 41.8505,70.5648 42.5,72.5C 41.1529,71.8288 39.9862,71.8288 39,72.5C 38.5983,71.1279 38.0983,69.7946 37.5,68.5C 39.5619,66.9081 39.8952,65.0748 38.5,63C 39.7441,62.5439 40.5774,63.0439 41,64.5C 43.0639,63.4086 45.2305,63.2419 47.5,64C 45.1168,65.1971 45.4501,66.0305 48.5,66.5C 52.3524,65.9423 53.0191,64.4423 50.5,62C 53.0766,60.7496 55.7433,60.4163 58.5,61C 56.8988,61.2734 55.3988,61.7734 54,62.5C 53.2748,64.1575 53.7748,65.1575 55.5,65.5 Z"/></g>
<g><path style="opacity:1" fill="#cfab01" d="M 55.5,65.5 C 57.3199,66.7274 59.3199,67.7274 61.5,68.5C 65.8465,67.8316 70.1798,67.1649 74.5,66.5C 74.2865,68.1439 74.6198,69.6439 75.5,71C 77.7687,70.6256 80.102,70.6256 82.5,71C 81.7476,71.6708 81.4142,72.5041 81.5,73.5C 77.2671,73.5387 73.2671,74.2053 69.5,75.5C 69.3312,90.1516 68.8312,90.1516 68,75.5C 67.1688,90.1516 66.6688,90.1516 66.5,75.5C 65.1667,75.5 63.8333,75.5 62.5,75.5C 62.665,78.8499 62.4983,82.1832 62,85.5C 61.502,82.5184 61.3354,79.5184 61.5,76.5C 60.5,76.5 59.5,76.5 58.5,76.5C 58.5608,73.9505 59.8941,72.4505 62.5,72C 59.8078,71.5702 57.1411,71.7369 54.5,72.5C 54.5,71.5 54.5,70.5 54.5,69.5C 57.4808,69.456 57.8142,69.1227 55.5,68.5C 53.4401,69.5284 51.4401,69.5284 49.5,68.5C 51.444,67.1993 53.444,66.1993 55.5,65.5 Z"/></g>
<g><path style="opacity:1" fill="#e0b902" d="M 111.5,72.5 C 111.389,73.1174 111.056,73.6174 110.5,74C 112.134,74.4935 113.801,74.6602 115.5,74.5C 115.5,79.1667 115.5,83.8333 115.5,88.5C 118.833,88.5 122.167,88.5 125.5,88.5C 125.334,84.1539 125.501,79.8206 126,75.5C 126.499,79.4862 126.666,83.4862 126.5,87.5C 128.735,87.7947 130.735,87.4614 132.5,86.5C 132.833,73.1667 133.167,73.1667 133.5,86.5C 134.833,86.5 136.167,86.5 137.5,86.5C 140.428,86.4349 143.095,85.7682 145.5,84.5C 149.182,84.2891 152.182,82.9558 154.5,80.5C 156.483,80.1568 157.817,80.8235 158.5,82.5C 157.942,83.7899 156.942,84.6232 155.5,85C 144.136,88.7727 132.47,90.9394 120.5,91.5C 116.154,91.6657 111.821,91.499 107.5,91C 105.167,88.6667 102.833,86.3333 100.5,84C 99.0024,83.4153 98.0024,83.9153 97.5,85.5C 96.1667,86.5 94.8333,87.5 93.5,88.5C 90.8333,88.5 88.1667,88.5 85.5,88.5C 85.5,83.8333 85.5,79.1667 85.5,74.5C 86.5,74.5 87.5,74.5 88.5,74.5C 93.544,74.8275 98.544,74.4941 103.5,73.5C 103.291,72.914 102.957,72.414 102.5,72C 105.702,70.5167 109.036,70.1834 112.5,71C 111.944,71.3826 111.611,71.8826 111.5,72.5 Z"/></g>
<g><path style="opacity:1" fill="#e6bd01" d="M 140.5,74.5 C 143.572,74.1826 146.572,74.5159 149.5,75.5C 149.137,76.1835 148.804,76.8501 148.5,77.5C 147.167,77.5 145.833,77.5 144.5,77.5C 142.781,76.9779 141.448,75.9779 140.5,74.5 Z"/></g>
<g><path style="opacity:1" fill="#deb701" d="M 57.5,76.5 C 54.2107,77.3739 50.8774,78.0405 47.5,78.5C 46.7611,78.631 46.0944,78.4643 45.5,78C 46.2524,77.3292 46.5858,76.4959 46.5,75.5C 46.8333,75.5 47.1667,75.5 47.5,75.5C 50.8049,75.6765 54.1382,75.0098 57.5,73.5C 57.5,74.5 57.5,75.5 57.5,76.5 Z"/></g>
<g><path style="opacity:1" fill="#947a01" d="M 81.5,73.5 C 81.8333,73.5 82.1667,73.5 82.5,73.5C 83.8333,73.5 85.1667,73.5 86.5,73.5C 87.4916,73.3284 88.1583,73.6618 88.5,74.5C 87.5,74.5 86.5,74.5 85.5,74.5C 83.1667,74.5 80.8333,74.5 78.5,74.5C 78.5,78.8333 78.5,83.1667 78.5,87.5C 80.1992,87.3398 81.8659,87.5065 83.5,88C 80.1832,88.4983 76.8499,88.665 73.5,88.5C 73.6657,84.1539 73.499,79.8206 73,75.5C 72.6667,79.5 72.3333,83.5 72,87.5C 71.8238,83.3123 71.3238,79.3123 70.5,75.5C 70.1667,75.5 69.8333,75.5 69.5,75.5C 73.2671,74.2053 77.2671,73.5387 81.5,73.5 Z"/></g>
<g><path style="opacity:1" fill="#876f00" d="M 111.5,72.5 C 111.833,72.5 112.167,72.5 112.5,72.5C 115.731,73.7815 119.064,73.7815 122.5,72.5C 122.5,73.1667 122.5,73.8333 122.5,74.5C 120.5,74.5 118.5,74.5 116.5,74.5C 116.5,78.8333 116.5,83.1667 116.5,87.5C 119.167,87.5 121.833,87.5 124.5,87.5C 124.5,83.1667 124.5,78.8333 124.5,74.5C 127.417,74.6349 130.084,73.9682 132.5,72.5C 131.89,73.391 131.557,74.391 131.5,75.5C 131.185,79.3714 131.518,83.0381 132.5,86.5C 130.735,87.4614 128.735,87.7947 126.5,87.5C 126.666,83.4862 126.499,79.4862 126,75.5C 125.501,79.8206 125.334,84.1539 125.5,88.5C 122.167,88.5 118.833,88.5 115.5,88.5C 115.5,83.8333 115.5,79.1667 115.5,74.5C 113.801,74.6602 112.134,74.4935 110.5,74C 111.056,73.6174 111.389,73.1174 111.5,72.5 Z"/></g>
<g><path style="opacity:1" fill="#b69601" d="M 122.5,74.5 C 123.167,74.5 123.833,74.5 124.5,74.5C 124.5,78.8333 124.5,83.1667 124.5,87.5C 121.833,87.5 119.167,87.5 116.5,87.5C 116.5,83.1667 116.5,78.8333 116.5,74.5C 118.5,74.5 120.5,74.5 122.5,74.5 Z"/></g>
<g><path style="opacity:1" fill="#625102" d="M 131.5,75.5 C 133.5,75.5 135.5,75.5 137.5,75.5C 137.5,79.1667 137.5,82.8333 137.5,86.5C 136.167,86.5 134.833,86.5 133.5,86.5C 133.167,73.1667 132.833,73.1667 132.5,86.5C 131.518,83.0381 131.185,79.3714 131.5,75.5 Z"/></g>
<g><path style="opacity:1" fill="#715d02" d="M 140.5,74.5 C 141.448,75.9779 142.781,76.9779 144.5,77.5C 143.371,79.6282 143.204,81.9615 144,84.5C 144.826,76.5272 145.326,76.5272 145.5,84.5C 143.095,85.7682 140.428,86.4349 137.5,86.5C 137.5,82.8333 137.5,79.1667 137.5,75.5C 138.609,75.4431 139.609,75.1098 140.5,74.5 Z"/></g>
<g><path style="opacity:1" fill="#e1b901" d="M 153.5,79.5 C 151.597,79.2041 149.93,78.5375 148.5,77.5C 151.909,76.674 155.242,77.174 158.5,79C 156.866,79.4935 155.199,79.6602 153.5,79.5 Z"/></g>
<g><path style="opacity:1" fill="#5b4b04" d="M 69.5,75.5 C 69.8333,75.5 70.1667,75.5 70.5,75.5C 70.5,79.5 70.5,83.5 70.5,87.5C 68.5328,87.7394 66.6995,87.4061 65,86.5C 64.1693,73.1832 63.6693,73.1832 63.5,86.5C 62.1667,86.5 60.8333,86.5 59.5,86.5C 59.6646,83.4816 59.498,80.4816 59,77.5C 58.5026,80.146 58.3359,82.8127 58.5,85.5C 53.9912,85.2896 49.6579,84.2896 45.5,82.5C 44.479,81.9984 44.3123,81.3317 45,80.5C 45.9947,79.9341 46.828,79.2674 47.5,78.5C 50.8774,78.0405 54.2107,77.3739 57.5,76.5C 57.8333,76.5 58.1667,76.5 58.5,76.5C 59.5,76.5 60.5,76.5 61.5,76.5C 61.3354,79.5184 61.502,82.5184 62,85.5C 62.4983,82.1832 62.665,78.8499 62.5,75.5C 63.8333,75.5 65.1667,75.5 66.5,75.5C 66.6688,90.1516 67.1688,90.1516 68,75.5C 68.8312,90.1516 69.3312,90.1516 69.5,75.5 Z"/></g>
<g><path style="opacity:1" fill="#453904" d="M 144.5,77.5 C 145.833,77.5 147.167,77.5 148.5,77.5C 149.93,78.5375 151.597,79.2041 153.5,79.5C 153.5,80.1667 153.833,80.5 154.5,80.5C 152.182,82.9558 149.182,84.2891 145.5,84.5C 145.326,76.5272 144.826,76.5272 144,84.5C 143.204,81.9615 143.371,79.6282 144.5,77.5 Z"/></g>
<g><path style="opacity:1" fill="#553027" d="M 120.5,91.5 C 117.023,92.3227 113.356,92.8227 109.5,93C 139.368,123.035 169.368,152.868 199.5,182.5C 199.5,182.833 199.5,183.167 199.5,183.5C 199.167,183.5 198.833,183.5 198.5,183.5C 198.167,183.5 197.833,183.5 197.5,183.5C 197.5,182.833 197.167,182.5 196.5,182.5C 164.5,149.833 132.167,117.5 99.5,85.5C 99.1667,85.5 98.8333,85.5 98.5,85.5C 98.1667,85.5 97.8333,85.5 97.5,85.5C 98.0024,83.9153 99.0024,83.4153 100.5,84C 102.833,86.3333 105.167,88.6667 107.5,91C 111.821,91.499 116.154,91.6657 120.5,91.5 Z"/></g>
<g><path style="opacity:1" fill="#b8b5b4" d="M 98.5,85.5 C 98.8333,85.5 99.1667,85.5 99.5,85.5C 99.3334,116.835 99.5,148.168 100,179.5C 105.035,174.297 110.202,169.297 115.5,164.5C 117.027,164.427 118.027,165.094 118.5,166.5C 113.887,171.779 108.887,176.779 103.5,181.5C 102.833,181.833 102.167,182.167 101.5,182.5C 99.1667,180.833 97.1667,178.833 95.5,176.5C 96.4959,176.414 97.3292,176.748 98,177.5C 98.5,147.168 98.6666,116.835 98.5,86.5C 98.5,86.1667 98.5,85.8333 98.5,85.5 Z"/></g>
<g><path style="opacity:1" fill="#dfdfe0" d="M 98.5,86.5 C 98.6666,116.835 98.5,147.168 98,177.5C 97.3292,176.748 96.4959,176.414 95.5,176.5C 91.1667,172.833 87.1667,168.833 83.5,164.5C 83.5,162.5 82.5,161.5 80.5,161.5C 78.8333,160.5 77.5,159.167 76.5,157.5C 76.5,155.5 75.5,154.5 73.5,154.5C 71.8333,153.5 70.5,152.167 69.5,150.5C 69.1667,148.167 67.8333,146.833 65.5,146.5C 64.8333,145.167 63.8333,144.167 62.5,143.5C 62.0113,142.005 61.3446,140.671 60.5,139.5C 58.0744,137.62 55.4077,136.287 52.5,135.5C 53.0231,138.878 54.3565,141.878 56.5,144.5C 56.5,144.833 56.5,145.167 56.5,145.5C 54.6774,146.493 53.3441,147.993 52.5,150C 55.2837,152.398 55.1171,154.565 52,156.5C 50.9805,155.313 49.8139,154.313 48.5,153.5C 40.1795,159.818 40.8462,162.152 50.5,160.5C 50.6168,162.484 49.9501,164.15 48.5,165.5C 49.1882,166.855 50.1882,167.855 51.5,168.5C 52.5812,170.134 53.9145,171.467 55.5,172.5C 55.8333,173.5 56.5,174.167 57.5,174.5C 58.209,175.404 59.209,175.737 60.5,175.5C 60.2322,177.099 60.5655,178.432 61.5,179.5C 62.7382,180.412 64.0715,180.579 65.5,180C 67.1667,178.333 68.8333,176.667 70.5,175C 68.1671,173.757 67.5004,172.091 68.5,170C 70.4645,169.376 72.1311,169.876 73.5,171.5C 75.1856,170.143 76.8523,168.81 78.5,167.5C 79.1667,167.167 79.8333,166.833 80.5,166.5C 85.8333,171.167 90.8333,176.167 95.5,181.5C 64.6712,182.498 33.6712,182.831 2.5,182.5C 34.1667,150.167 66.1667,118.167 98.5,86.5 Z"/></g>
<g><path style="opacity:1" fill="#e81b23" d="M 99.5,85.5 C 132.167,117.5 164.5,149.833 196.5,182.5C 165.329,182.831 134.329,182.498 103.5,181.5C 108.887,176.779 113.887,171.779 118.5,166.5C 119.167,166.5 119.833,166.5 120.5,166.5C 121.548,168.613 123.048,170.28 125,171.5C 126.567,170.144 128.4,169.477 130.5,169.5C 130.523,171.6 129.856,173.433 128.5,175C 130.661,176.996 132.661,179.162 134.5,181.5C 135.981,180.52 137.315,179.353 138.5,178C 134.541,173.691 135.207,172.858 140.5,175.5C 142.167,174.5 143.5,173.167 144.5,171.5C 143.018,169.517 141.351,167.684 139.5,166C 137.633,165.289 136.133,165.789 135,167.5C 133.228,166.01 133.061,164.343 134.5,162.5C 131.5,157.5 132.5,156.5 137.5,159.5C 142.413,156.916 143.413,158.083 140.5,163C 142.661,164.996 144.661,167.162 146.5,169.5C 150.65,167.744 151.316,165.244 148.5,162C 148.833,161.5 149.167,161 149.5,160.5C 152.901,164.294 155.068,163.627 156,158.5C 154.5,157 153,155.5 151.5,154C 149.633,153.289 148.133,153.789 147,155.5C 146.075,154.953 145.242,154.287 144.5,153.5C 147.337,150.005 146.67,147.339 142.5,145.5C 142.5,145.167 142.5,144.833 142.5,144.5C 144.782,141.896 146.116,138.896 146.5,135.5C 143.246,135.794 140.579,137.127 138.5,139.5C 137.326,140.514 136.66,141.847 136.5,143.5C 134.833,144.5 133.5,145.833 132.5,147.5C 130.5,147.5 129.5,148.5 129.5,150.5C 127.833,151.5 126.5,152.833 125.5,154.5C 123.5,154.5 122.5,155.5 122.5,157.5C 120.833,158.5 119.5,159.833 118.5,161.5C 116.5,161.5 115.5,162.5 115.5,164.5C 110.202,169.297 105.035,174.297 100,179.5C 99.5,148.168 99.3334,116.835 99.5,85.5 Z"/></g>
<g><path style="opacity:1" fill="#52514e" d="M 97.5,85.5 C 97.8333,85.5 98.1667,85.5 98.5,85.5C 98.5,85.8333 98.5,86.1667 98.5,86.5C 66.1667,118.167 34.1667,150.167 2.5,182.5C 1.66175,182.842 1.32842,183.508 1.5,184.5C 0.426544,183.749 0.259877,182.749 1,181.5C 30.5,152 60,122.5 89.5,93C 85.3123,92.8238 81.3123,92.3238 77.5,91.5C 82.1785,91.6658 86.8452,91.4992 91.5,91C 92.3805,90.2917 93.0472,89.4584 93.5,88.5C 94.8333,87.5 96.1667,86.5 97.5,85.5 Z"/></g>
<g><path style="opacity:1" fill="#d2ad07" d="M 60.5,139.5 C 59.9202,141.749 58.5869,143.415 56.5,144.5C 54.3565,141.878 53.0231,138.878 52.5,135.5C 55.4077,136.287 58.0744,137.62 60.5,139.5 Z"/></g>
<g><path style="opacity:1" fill="#c4bfc0" d="M 142.5,144.5 C 140.413,143.415 139.08,141.749 138.5,139.5C 140.579,137.127 143.246,135.794 146.5,135.5C 146.116,138.896 144.782,141.896 142.5,144.5 Z"/></g>
<g><path style="opacity:1" fill="#735f03" d="M 60.5,139.5 C 61.3446,140.671 62.0113,142.005 62.5,143.5C 61.0689,143.881 60.2355,144.881 60,146.5C 58.9887,145.663 57.8221,145.33 56.5,145.5C 56.5,145.167 56.5,144.833 56.5,144.5C 58.5869,143.415 59.9202,141.749 60.5,139.5 Z"/></g>
<g><path style="opacity:1" fill="#605b5b" d="M 138.5,139.5 C 139.08,141.749 140.413,143.415 142.5,144.5C 142.5,144.833 142.5,145.167 142.5,145.5C 140.315,145.296 138.315,144.63 136.5,143.5C 136.66,141.847 137.326,140.514 138.5,139.5 Z"/></g>
<g><path style="opacity:1" fill="#d9b305" d="M 62.5,143.5 C 63.8333,144.167 64.8333,145.167 65.5,146.5C 66.8565,148.499 66.1899,149.665 63.5,150C 64.3333,151.5 65.5,152.667 67,153.5C 67.2355,151.881 68.0689,150.881 69.5,150.5C 70.5,152.167 71.8333,153.5 73.5,154.5C 73.6309,155.376 73.2975,156.043 72.5,156.5C 68.8904,155.153 68.5571,155.82 71.5,158.5C 72.2421,159.287 73.0754,159.953 74,160.5C 74.2355,158.881 75.0689,157.881 76.5,157.5C 77.5,159.167 78.8333,160.5 80.5,161.5C 80.6309,162.376 80.2975,163.043 79.5,163.5C 78.549,162.674 77.549,162.508 76.5,163C 78.0368,164.11 78.7035,165.61 78.5,167.5C 76.8523,168.81 75.1856,170.143 73.5,171.5C 72.1311,169.876 70.4645,169.376 68.5,170C 67.5004,172.091 68.1671,173.757 70.5,175C 68.8333,176.667 67.1667,178.333 65.5,180C 64.0715,180.579 62.7382,180.412 61.5,179.5C 61.9052,177.35 62.4052,175.35 63,173.5C 62.586,173.043 62.086,172.709 61.5,172.5C 60.3777,173.63 59.0443,174.297 57.5,174.5C 56.5,174.167 55.8333,173.5 55.5,172.5C 56.7381,169.755 58.5714,167.421 61,165.5C 62.4764,168.432 64.1431,168.766 66,166.5C 66.3334,164.953 65.8334,163.62 64.5,162.5C 68.3007,157.63 67.3007,156.63 61.5,159.5C 59.3019,156.757 57.3019,156.923 55.5,160C 57.2552,160.72 58.0885,161.887 58,163.5C 56.2228,165.79 54.0562,167.457 51.5,168.5C 50.1882,167.855 49.1882,166.855 48.5,165.5C 49.9501,164.15 50.6168,162.484 50.5,160.5C 40.8462,162.152 40.1795,159.818 48.5,153.5C 49.8139,154.313 50.9805,155.313 52,156.5C 55.1171,154.565 55.2837,152.398 52.5,150C 53.3441,147.993 54.6774,146.493 56.5,145.5C 57.8221,145.33 58.9887,145.663 60,146.5C 60.2355,144.881 61.0689,143.881 62.5,143.5 Z"/></g>
<g><path style="opacity:1" fill="#cbc8c8" d="M 136.5,143.5 C 138.315,144.63 140.315,145.296 142.5,145.5C 146.67,147.339 147.337,150.005 144.5,153.5C 145.242,154.287 146.075,154.953 147,155.5C 148.133,153.789 149.633,153.289 151.5,154C 153,155.5 154.5,157 156,158.5C 155.068,163.627 152.901,164.294 149.5,160.5C 149.167,161 148.833,161.5 148.5,162C 151.316,165.244 150.65,167.744 146.5,169.5C 144.661,167.162 142.661,164.996 140.5,163C 143.413,158.083 142.413,156.916 137.5,159.5C 132.5,156.5 131.5,157.5 134.5,162.5C 133.061,164.343 133.228,166.01 135,167.5C 136.133,165.789 137.633,165.289 139.5,166C 141.351,167.684 143.018,169.517 144.5,171.5C 143.5,173.167 142.167,174.5 140.5,175.5C 135.207,172.858 134.541,173.691 138.5,178C 137.315,179.353 135.981,180.52 134.5,181.5C 132.661,179.162 130.661,176.996 128.5,175C 129.856,173.433 130.523,171.6 130.5,169.5C 128.4,169.477 126.567,170.144 125,171.5C 123.048,170.28 121.548,168.613 120.5,166.5C 120.414,165.504 120.748,164.671 121.5,164C 119.881,163.764 118.881,162.931 118.5,161.5C 119.5,159.833 120.833,158.5 122.5,157.5C 124.044,157.703 125.378,158.37 126.5,159.5C 127.287,158.758 127.953,157.925 128.5,157C 126.881,156.764 125.881,155.931 125.5,154.5C 126.5,152.833 127.833,151.5 129.5,150.5C 131.044,150.703 132.378,151.37 133.5,152.5C 134.287,151.758 134.953,150.925 135.5,150C 133.881,149.764 132.881,148.931 132.5,147.5C 133.5,145.833 134.833,144.5 136.5,143.5 Z"/></g>
<g><path style="opacity:1" fill="#756215" d="M 65.5,146.5 C 67.8333,146.833 69.1667,148.167 69.5,150.5C 68.0689,150.881 67.2355,151.881 67,153.5C 65.5,152.667 64.3333,151.5 63.5,150C 66.1899,149.665 66.8565,148.499 65.5,146.5 Z"/></g>
<g><path style="opacity:1" fill="#6a6261" d="M 132.5,147.5 C 132.881,148.931 133.881,149.764 135.5,150C 134.953,150.925 134.287,151.758 133.5,152.5C 132.378,151.37 131.044,150.703 129.5,150.5C 129.5,148.5 130.5,147.5 132.5,147.5 Z"/></g>
<g><path style="opacity:1" fill="#796408" d="M 73.5,154.5 C 75.5,154.5 76.5,155.5 76.5,157.5C 75.0689,157.881 74.2355,158.881 74,160.5C 73.0754,159.953 72.2421,159.287 71.5,158.5C 68.5571,155.82 68.8904,155.153 72.5,156.5C 73.2975,156.043 73.6309,155.376 73.5,154.5 Z"/></g>
<g><path style="opacity:1" fill="#6a6060" d="M 125.5,154.5 C 125.881,155.931 126.881,156.764 128.5,157C 127.953,157.925 127.287,158.758 126.5,159.5C 125.378,158.37 124.044,157.703 122.5,157.5C 122.5,155.5 123.5,154.5 125.5,154.5 Z"/></g>
<g><path style="opacity:1" fill="#b9b7af" d="M 55.5,172.5 C 53.9145,171.467 52.5812,170.134 51.5,168.5C 54.0562,167.457 56.2228,165.79 58,163.5C 58.0885,161.887 57.2552,160.72 55.5,160C 57.3019,156.923 59.3019,156.757 61.5,159.5C 67.3007,156.63 68.3007,157.63 64.5,162.5C 65.8334,163.62 66.3334,164.953 66,166.5C 64.1431,168.766 62.4764,168.432 61,165.5C 58.5714,167.421 56.7381,169.755 55.5,172.5 Z"/></g>
<g><path style="opacity:1" fill="#77630e" d="M 80.5,161.5 C 82.5,161.5 83.5,162.5 83.5,164.5C 81.9731,164.427 80.9731,165.094 80.5,166.5C 79.8333,166.833 79.1667,167.167 78.5,167.5C 78.7035,165.61 78.0368,164.11 76.5,163C 77.549,162.508 78.549,162.674 79.5,163.5C 80.2975,163.043 80.6309,162.376 80.5,161.5 Z"/></g>
<g><path style="opacity:1" fill="#695e5e" d="M 118.5,161.5 C 118.881,162.931 119.881,163.764 121.5,164C 120.748,164.671 120.414,165.504 120.5,166.5C 119.833,166.5 119.167,166.5 118.5,166.5C 118.027,165.094 117.027,164.427 115.5,164.5C 115.5,162.5 116.5,161.5 118.5,161.5 Z"/></g>
<g><path style="opacity:1" fill="#a49f92" d="M 61.5,179.5 C 60.5655,178.432 60.2322,177.099 60.5,175.5C 59.209,175.737 58.209,175.404 57.5,174.5C 59.0443,174.297 60.3777,173.63 61.5,172.5C 62.086,172.709 62.586,173.043 63,173.5C 62.4052,175.35 61.9052,177.35 61.5,179.5 Z"/></g>
<g><path style="opacity:1" fill="#643a39" d="M 95.5,181.5 C 96.5,181.833 97.1667,182.5 97.5,183.5C 96.8333,183.833 96.1667,184.167 95.5,184.5C 64.6694,183.336 33.6694,183.169 2.5,184C 34.368,216.035 66.368,247.868 98.5,279.5C 98.5,280.167 98.8333,280.5 99.5,280.5C 99.8333,280.5 100.167,280.5 100.5,280.5C 100.5,280.833 100.5,281.167 100.5,281.5C 100.5,281.833 100.5,282.167 100.5,282.5C 99.8333,282.5 99.1667,282.5 98.5,282.5C 66.1667,249.833 33.8333,217.167 1.5,184.5C 1.32842,183.508 1.66175,182.842 2.5,182.5C 33.6712,182.831 64.6712,182.498 95.5,181.5 Z"/></g>
<g><path style="opacity:1" fill="#816768" d="M 103.5,181.5 C 134.329,182.498 165.329,182.831 196.5,182.5C 197.167,182.5 197.5,182.833 197.5,183.5C 197.167,183.5 196.833,183.5 196.5,183.5C 165.329,183.169 134.329,183.502 103.5,184.5C 102.5,184.167 101.833,183.5 101.5,182.5C 102.167,182.167 102.833,181.833 103.5,181.5 Z"/></g>
<g><path style="opacity:1" fill="#e91b23" d="M 95.5,184.5 C 88.1877,191.146 81.1877,198.146 74.5,205.5C 72.8045,204.826 71.1379,204.159 69.5,203.5C 60.6463,197.211 53.1463,198.544 47,207.5C 45.1887,214.188 47.022,219.521 52.5,223.5C 52.5,223.833 52.5,224.167 52.5,224.5C 53.1103,226.434 54.1103,228.101 55.5,229.5C 57.0276,230.309 58.6943,230.976 60.5,231.5C 61.6253,233.129 62.9586,234.629 64.5,236C 78.7206,238.438 85.2206,232.604 84,218.5C 83.0041,216.34 81.5041,214.673 79.5,213.5C 78.4637,211.572 77.9637,209.572 78,207.5C 84.3685,200.964 90.8685,194.631 97.5,188.5C 98.4981,218.662 98.8315,248.995 98.5,279.5C 66.368,247.868 34.368,216.035 2.5,184C 33.6694,183.169 64.6694,183.336 95.5,184.5 Z"/></g>
<g><path style="opacity:1" fill="#dfe0e0" d="M 196.5,183.5 C 164.833,215.833 132.833,247.833 100.5,279.5C 100.333,249.165 100.5,218.832 101,188.5C 108.095,195.089 114.595,202.089 120.5,209.5C 120.385,211.947 119.385,213.947 117.5,215.5C 116.21,216.058 115.377,217.058 115,218.5C 114.333,221.5 114.333,224.5 115,227.5C 119.843,236.906 127.01,239.072 136.5,234C 137.381,233.292 138.047,232.458 138.5,231.5C 139.995,231.011 141.329,230.345 142.5,229.5C 144.587,228.415 145.92,226.749 146.5,224.5C 146.5,224.167 146.5,223.833 146.5,223.5C 151.978,219.521 153.811,214.188 152,207.5C 149.536,204.519 146.703,202.186 143.5,200.5C 140.36,199.359 137.027,199.192 133.5,200C 132.944,200.383 132.611,200.883 132.5,201.5C 131.508,201.328 130.842,201.662 130.5,202.5C 129.5,203.167 128.5,203.833 127.5,204.5C 126.153,205.028 124.819,205.195 123.5,205C 116.631,198.298 109.964,191.465 103.5,184.5C 134.329,183.502 165.329,183.169 196.5,183.5 Z"/></g>
<g><path style="opacity:1" fill="#b4acad" d="M 97.5,183.5 C 98.1667,183.5 98.5,183.833 98.5,184.5C 98.1667,185.833 97.8333,187.167 97.5,188.5C 90.8685,194.631 84.3685,200.964 78,207.5C 77.9637,209.572 78.4637,211.572 79.5,213.5C 74.2127,211.777 71.8794,213.777 72.5,219.5C 71.1667,218.5 69.8333,217.5 68.5,216.5C 68.1667,215.5 67.5,214.833 66.5,214.5C 65.8333,213.5 65.1667,212.5 64.5,211.5C 70.1776,211.492 71.8443,208.825 69.5,203.5C 71.1379,204.159 72.8045,204.826 74.5,205.5C 81.1877,198.146 88.1877,191.146 95.5,184.5C 96.1667,184.167 96.8333,183.833 97.5,183.5 Z"/></g>
<g><path style="opacity:1" fill="#fefefe" d="M 198.5,183.5 C 198.833,183.5 199.167,183.5 199.5,183.5C 199.5,216.5 199.5,249.5 199.5,282.5C 166.5,282.5 133.5,282.5 100.5,282.5C 100.5,282.167 100.5,281.833 100.5,281.5C 133.5,249.167 166.167,216.5 198.5,183.5 Z"/></g>
<g><path style="opacity:1" fill="#aa171a" d="M 98.5,184.5 C 99.5,184.833 100.167,185.5 100.5,186.5C 99.5018,217.662 99.1685,248.996 99.5,280.5C 98.8333,280.5 98.5,280.167 98.5,279.5C 98.8315,248.995 98.4981,218.662 97.5,188.5C 97.8333,187.167 98.1667,185.833 98.5,184.5 Z"/></g>
<g><path style="opacity:1" fill="#aeaba1" d="M 100.5,186.5 C 107.465,192.964 114.298,199.631 121,206.5C 121.483,207.448 121.649,208.448 121.5,209.5C 121.167,209.5 120.833,209.5 120.5,209.5C 114.595,202.089 108.095,195.089 101,188.5C 100.5,218.832 100.333,249.165 100.5,279.5C 100.5,279.833 100.5,280.167 100.5,280.5C 100.167,280.5 99.8333,280.5 99.5,280.5C 99.1685,248.996 99.5018,217.662 100.5,186.5 Z"/></g>
<g><path style="opacity:1" fill="#786a36" d="M 143.5,200.5 C 139.766,200.323 136.099,200.656 132.5,201.5C 132.611,200.883 132.944,200.383 133.5,200C 137.027,199.192 140.36,199.359 143.5,200.5 Z"/></g>
<g><path style="opacity:1" fill="#cbc8c8" d="M 69.5,203.5 C 71.8443,208.825 70.1776,211.492 64.5,211.5C 64.5,210.167 64.5,208.833 64.5,207.5C 65.675,207.719 66.675,207.386 67.5,206.5C 67.0431,205.702 66.3764,205.369 65.5,205.5C 61.6588,203.939 57.9922,204.439 54.5,207C 55.91,207.368 56.91,208.201 57.5,209.5C 55.314,210.221 53.1474,210.887 51,211.5C 50.1041,214.025 50.6041,216.192 52.5,218C 54.3109,217.293 56.3109,216.793 58.5,216.5C 59.3234,221.339 57.3234,223.673 52.5,223.5C 47.022,219.521 45.1887,214.188 47,207.5C 53.1463,198.544 60.6463,197.211 69.5,203.5 Z"/></g>
<g><path style="opacity:1" fill="#d7b105" d="M 83.5,164.5 C 87.1667,168.833 91.1667,172.833 95.5,176.5C 97.1667,178.833 99.1667,180.833 101.5,182.5C 101.833,183.5 102.5,184.167 103.5,184.5C 109.964,191.465 116.631,198.298 123.5,205C 124.819,205.195 126.153,205.028 127.5,204.5C 127.148,207.073 127.648,209.406 129,211.5C 129.21,210.197 129.043,208.864 128.5,207.5C 129.187,205.823 129.854,204.156 130.5,202.5C 130.842,201.662 131.508,201.328 132.5,201.5C 136.099,200.656 139.766,200.323 143.5,200.5C 146.703,202.186 149.536,204.519 152,207.5C 153.811,214.188 151.978,219.521 146.5,223.5C 142.167,223.833 140.167,221.833 140.5,217.5C 140.5,217.167 140.5,216.833 140.5,216.5C 142.689,216.793 144.689,217.293 146.5,218C 149.915,212.969 148.582,209.802 142.5,208.5C 144.783,206.514 144.116,205.347 140.5,205C 137.208,204.064 134.208,204.564 131.5,206.5C 132.325,207.386 133.325,207.719 134.5,207.5C 134.834,210.188 134.168,212.521 132.5,214.5C 131.5,214.833 130.833,215.5 130.5,216.5C 128.717,217.114 127.384,218.28 126.5,220C 125.251,220.74 124.251,220.573 123.5,219.5C 123.306,215.995 122.306,215.662 120.5,218.5C 118.559,220.011 118.059,222.011 119,224.5C 120.916,225.928 123.083,226.928 125.5,227.5C 124.5,228.167 123.5,228.833 122.5,229.5C 126.806,233.148 131.139,233.314 135.5,230C 134.552,229.517 133.552,229.351 132.5,229.5C 132.5,228.167 132.5,226.833 132.5,225.5C 133.473,223.052 133.806,220.385 133.5,217.5C 135.5,217.5 137.5,217.5 139.5,217.5C 138.833,222.833 141.167,225.167 146.5,224.5C 145.92,226.749 144.587,228.415 142.5,229.5C 141.5,229.5 140.5,229.5 139.5,229.5C 139.649,228.448 139.483,227.448 139,226.5C 138.506,228.134 138.34,229.801 138.5,231.5C 138.047,232.458 137.381,233.292 136.5,234C 127.01,239.072 119.843,236.906 115,227.5C 114.333,224.5 114.333,221.5 115,218.5C 115.377,217.058 116.21,216.058 117.5,215.5C 119.697,214.155 122.03,212.989 124.5,212C 122.881,211.764 121.881,210.931 121.5,209.5C 121.649,208.448 121.483,207.448 121,206.5C 114.298,199.631 107.465,192.964 100.5,186.5C 100.167,185.5 99.5,184.833 98.5,184.5C 98.5,183.833 98.1667,183.5 97.5,183.5C 97.1667,182.5 96.5,181.833 95.5,181.5C 90.8333,176.167 85.8333,171.167 80.5,166.5C 80.9731,165.094 81.9731,164.427 83.5,164.5 Z"/></g>
<g><path style="opacity:1" fill="#d41f23" d="M 65.5,205.5 C 65.1667,206.167 64.8333,206.833 64.5,207.5C 64.5,208.833 64.5,210.167 64.5,211.5C 65.1667,212.5 65.8333,213.5 66.5,214.5C 66.1667,215.167 65.8333,215.833 65.5,216.5C 65.1667,216.5 64.8333,216.5 64.5,216.5C 62.5,216.5 60.5,216.5 58.5,216.5C 56.3109,216.793 54.3109,217.293 52.5,218C 50.6041,216.192 50.1041,214.025 51,211.5C 53.1474,210.887 55.314,210.221 57.5,209.5C 56.91,208.201 55.91,207.368 54.5,207C 57.9922,204.439 61.6588,203.939 65.5,205.5 Z"/></g>
<g><path style="opacity:1" fill="#c6c5c1" d="M 140.5,216.5 C 138.143,216.663 135.81,216.497 133.5,216C 132.944,215.617 132.611,215.117 132.5,214.5C 134.168,212.521 134.834,210.188 134.5,207.5C 133.325,207.719 132.325,207.386 131.5,206.5C 134.208,204.564 137.208,204.064 140.5,205C 144.116,205.347 144.783,206.514 142.5,208.5C 148.582,209.802 149.915,212.969 146.5,218C 144.689,217.293 142.689,216.793 140.5,216.5 Z"/></g>
<g><path style="opacity:1" fill="#633c3a" d="M 65.5,205.5 C 66.3764,205.369 67.0431,205.702 67.5,206.5C 66.675,207.386 65.675,207.719 64.5,207.5C 64.8333,206.833 65.1667,206.167 65.5,205.5 Z"/></g>
<g><path style="opacity:1" fill="#7d680c" d="M 130.5,202.5 C 129.854,204.156 129.187,205.823 128.5,207.5C 129.043,208.864 129.21,210.197 129,211.5C 127.648,209.406 127.148,207.073 127.5,204.5C 128.5,203.833 129.5,203.167 130.5,202.5 Z"/></g>
<g><path style="opacity:1" fill="#7f6b1e" d="M 120.5,209.5 C 120.833,209.5 121.167,209.5 121.5,209.5C 121.881,210.931 122.881,211.764 124.5,212C 122.03,212.989 119.697,214.155 117.5,215.5C 119.385,213.947 120.385,211.947 120.5,209.5 Z"/></g>
<g><path style="opacity:1" fill="#cac7c8" d="M 79.5,213.5 C 81.5041,214.673 83.0041,216.34 84,218.5C 85.2206,232.604 78.7206,238.438 64.5,236C 62.9586,234.629 61.6253,233.129 60.5,231.5C 60.6602,229.801 60.4935,228.134 60,226.5C 59.5172,227.448 59.3505,228.448 59.5,229.5C 58.1667,229.5 56.8333,229.5 55.5,229.5C 54.1103,228.101 53.1103,226.434 52.5,224.5C 57.8333,225.167 60.1667,222.833 59.5,217.5C 61.4147,217.784 63.0813,217.451 64.5,216.5C 64.8333,216.5 65.1667,216.5 65.5,216.5C 66.1667,216.5 66.5,216.833 66.5,217.5C 65.4357,221.441 65.4357,225.441 66.5,229.5C 65.448,229.351 64.448,229.517 63.5,230C 66.6335,231.57 69.9668,231.903 73.5,231C 76.028,229.983 76.028,228.816 73.5,227.5C 81.12,226.18 82.2867,222.847 77,217.5C 76.165,220.269 74.665,220.935 72.5,219.5C 71.8794,213.777 74.2127,211.777 79.5,213.5 Z"/></g>
<g><path style="opacity:1" fill="#545454" d="M 196.5,183.5 C 196.833,183.5 197.167,183.5 197.5,183.5C 197.833,183.5 198.167,183.5 198.5,183.5C 166.167,216.5 133.5,249.167 100.5,281.5C 100.5,281.167 100.5,280.833 100.5,280.5C 100.5,280.167 100.5,279.833 100.5,279.5C 132.833,247.833 164.833,215.833 196.5,183.5 Z"/></g>
<g><path style="opacity:1" fill="#5e1517" d="M 66.5,214.5 C 67.5,214.833 68.1667,215.5 68.5,216.5C 67.8333,216.833 67.1667,217.167 66.5,217.5C 66.5,216.833 66.1667,216.5 65.5,216.5C 65.8333,215.833 66.1667,215.167 66.5,214.5 Z"/></g>
<g><path style="opacity:1" fill="#d21c22" d="M 68.5,216.5 C 69.8333,217.5 71.1667,218.5 72.5,219.5C 74.665,220.935 76.165,220.269 77,217.5C 82.2867,222.847 81.12,226.18 73.5,227.5C 76.028,228.816 76.028,229.983 73.5,231C 69.9668,231.903 66.6335,231.57 63.5,230C 64.448,229.517 65.448,229.351 66.5,229.5C 65.4357,225.441 65.4357,221.441 66.5,217.5C 67.1667,217.167 67.8333,216.833 68.5,216.5 Z"/></g>
<g><path style="opacity:1" fill="#78682c" d="M 123.5,219.5 C 122.609,218.89 121.609,218.557 120.5,218.5C 122.306,215.662 123.306,215.995 123.5,219.5 Z"/></g>
<g><path style="opacity:1" fill="#c7c6c1" d="M 130.5,216.5 C 131.117,216.611 131.617,216.944 132,217.5C 132.497,220.146 132.664,222.813 132.5,225.5C 132.5,226.833 132.5,228.167 132.5,229.5C 133.552,229.351 134.552,229.517 135.5,230C 131.139,233.314 126.806,233.148 122.5,229.5C 123.5,228.833 124.5,228.167 125.5,227.5C 123.083,226.928 120.916,225.928 119,224.5C 118.059,222.011 118.559,220.011 120.5,218.5C 121.609,218.557 122.609,218.89 123.5,219.5C 124.251,220.573 125.251,220.74 126.5,220C 127.384,218.28 128.717,217.114 130.5,216.5 Z"/></g>
<g><path style="opacity:1" fill="#71684c" d="M 132.5,214.5 C 132.611,215.117 132.944,215.617 133.5,216C 135.81,216.497 138.143,216.663 140.5,216.5C 140.5,216.833 140.5,217.167 140.5,217.5C 140.167,217.5 139.833,217.5 139.5,217.5C 137.5,217.5 135.5,217.5 133.5,217.5C 133.806,220.385 133.473,223.052 132.5,225.5C 132.664,222.813 132.497,220.146 132,217.5C 131.617,216.944 131.117,216.611 130.5,216.5C 130.833,215.5 131.5,214.833 132.5,214.5 Z"/></g>
<g><path style="opacity:1" fill="#846d00" d="M 139.5,217.5 C 139.833,217.5 140.167,217.5 140.5,217.5C 140.167,221.833 142.167,223.833 146.5,223.5C 146.5,223.833 146.5,224.167 146.5,224.5C 141.167,225.167 138.833,222.833 139.5,217.5 Z"/></g>
<g><path style="opacity:1" fill="#7d7473" d="M 58.5,216.5 C 60.5,216.5 62.5,216.5 64.5,216.5C 63.0813,217.451 61.4147,217.784 59.5,217.5C 60.1667,222.833 57.8333,225.167 52.5,224.5C 52.5,224.167 52.5,223.833 52.5,223.5C 57.3234,223.673 59.3234,221.339 58.5,216.5 Z"/></g>
<g><path style="opacity:1" fill="#726261" d="M 60.5,231.5 C 58.6943,230.976 57.0276,230.309 55.5,229.5C 56.8333,229.5 58.1667,229.5 59.5,229.5C 59.3505,228.448 59.5172,227.448 60,226.5C 60.4935,228.134 60.6602,229.801 60.5,231.5 Z"/></g>
<g><path style="opacity:1" fill="#705e10" d="M 142.5,229.5 C 141.329,230.345 139.995,231.011 138.5,231.5C 138.34,229.801 138.506,228.134 139,226.5C 139.483,227.448 139.649,228.448 139.5,229.5C 140.5,229.5 141.5,229.5 142.5,229.5 Z"/></g>
</svg>
